<svg width="18" height="19" viewBox="0 0 18 19" fill="none" xmlns="http://www.w3.org/2000/svg">
<path opacity="0.7" d="M9 0C6.69937 0 3.42769 0.701235 1.69336 1.09813C0.699773 1.32543 0 2.13762 0 3.05738V7.41566C0 10.7522 2.20184 13.5792 4.33301 15.5739C6.46418 17.5686 8.60156 18.7735 8.60156 18.7735L9.00586 19L9.4043 18.7683C9.4043 18.7683 11.5379 17.5366 13.667 15.5292C15.7961 13.5218 18 10.7007 18 7.41566V3.05738C18 2.13732 17.3006 1.32736 16.3096 1.09813H16.3066C14.5724 0.701235 11.3006 0 9 0ZM9 1.3483C10.9406 1.3483 14.2393 2.01641 15.9346 2.4043C16.2726 2.48248 16.5 2.74509 16.5 3.05738V7.41566C16.5 10.1467 14.5789 12.7178 12.583 14.5996C10.788 16.292 9.33956 17.1255 8.99707 17.3304C8.65502 17.1303 7.21013 16.32 5.41699 14.6417C3.42316 12.7756 1.5 10.2085 1.5 7.41566V3.05738C1.5 2.7421 1.72409 2.48171 2.0625 2.4043C3.75717 2.01648 7.05863 1.3483 9 1.3483ZM9 4.04491C7.35203 4.04491 6 5.2602 6 6.74151C6 7.46409 6.32583 8.12016 6.84668 8.60596C5.45675 9.29602 4.5 10.6126 4.5 12.1347H6C6 10.6369 7.33364 9.43812 9 9.43812C10.6664 9.43812 12 10.6369 12 12.1347H13.5C13.5 10.6126 12.5433 9.29602 11.1533 8.60596C11.6742 8.12016 12 7.46409 12 6.74151C12 5.2602 10.648 4.04491 9 4.04491ZM9 5.39321C9.83731 5.39321 10.5 5.98888 10.5 6.74151C10.5 7.49414 9.83731 8.08981 9 8.08981C8.16269 8.08981 7.5 7.49414 7.5 6.74151C7.5 5.98888 8.16269 5.39321 9 5.39321Z" fill="white"/>
</svg>
