<svg width="40" height="37" viewBox="0 0 40 37" fill="none" xmlns="http://www.w3.org/2000/svg">
<path opacity="0.3" d="M7.65336 0C6.85764 0 6.06771 0.263047 5.43113 0.74L1.48148 3.7C0.552662 4.39375 0 5.50086 0 6.66V34.78C0 36.0027 0.998264 37 2.22222 37H37.7778C39.0017 37 40 36.0027 40 34.78V6.66C40 5.50086 39.4473 4.39375 38.5185 3.7L34.5689 0.74C33.9323 0.263047 33.1424 0 32.3466 0H7.65336ZM7.65336 1.48H19.2593V4.48336H2.90509L6.31944 1.92227C6.70428 1.63609 7.17593 1.48 7.65336 1.48ZM20.7407 1.48H32.3466C32.8241 1.48 33.2957 1.63609 33.6806 1.92227L37.6302 4.88227C38.1858 5.30141 38.5185 5.96625 38.5185 6.66V34.78C38.5185 35.1876 38.1858 35.52 37.7778 35.52H2.22222C1.81424 35.52 1.48148 35.1876 1.48148 34.78V6.66C1.48148 6.42008 1.53357 6.18594 1.6088 5.96336H28.8889C29.2969 5.96336 29.6296 5.63094 29.6296 5.22336C29.6296 4.81289 29.2969 4.48336 28.8889 4.48336H20.7407V1.48ZM31.8519 4.48336C31.4439 4.48336 31.1111 4.81289 31.1111 5.22336C31.1111 5.63094 31.4439 5.96336 31.8519 5.96336H34.8148C35.2228 5.96336 35.5556 5.63094 35.5556 5.22336C35.5556 4.81289 35.2228 4.48336 34.8148 4.48336H31.8519ZM17.037 8.88C16.6291 8.88 16.2963 9.21242 16.2963 9.62C16.2963 10.0276 16.6291 10.36 17.037 10.36H22.963C23.3709 10.36 23.7037 10.0276 23.7037 9.62C23.7037 9.21242 23.3709 8.88 22.963 8.88H17.037ZM15.5556 14.8C15.3675 14.8 15.1765 14.8723 15.0318 15.0168L12.8096 17.2368C12.5203 17.5259 12.5203 17.9941 12.8096 18.2832C13.099 18.5723 13.5677 18.5723 13.8571 18.2832L14.8148 17.3264V22.94C14.8148 23.3476 15.1476 23.68 15.5556 23.68C15.9635 23.68 16.2963 23.3476 16.2963 22.94V17.3264L17.2541 18.2832C17.3987 18.4277 17.5868 18.5 17.7778 18.5C17.9688 18.5 18.1568 18.4277 18.3015 18.2832C18.5909 17.9941 18.5909 17.5259 18.3015 17.2368L16.0793 15.0168C15.9346 14.8723 15.7436 14.8 15.5556 14.8ZM24.4444 14.8C24.2564 14.8 24.0654 14.8723 23.9207 15.0168L21.6985 17.2368C21.4091 17.5259 21.4091 17.9941 21.6985 18.2832C21.9878 18.5723 22.4566 18.5723 22.7459 18.2832L23.7037 17.3264V22.94C23.7037 23.3476 24.0365 23.68 24.4444 23.68C24.8524 23.68 25.1852 23.3476 25.1852 22.94V17.3264L26.1429 18.2832C26.2876 18.4277 26.4757 18.5 26.6667 18.5C26.8576 18.5 27.0457 18.4277 27.1904 18.2832C27.4797 17.9941 27.4797 17.5259 27.1904 17.2368L24.9682 15.0168C24.8235 14.8723 24.6325 14.8 24.4444 14.8ZM12.5926 25.16C12.1846 25.16 11.8519 25.4924 11.8519 25.9C11.8519 26.3076 12.1846 26.64 12.5926 26.64H27.4074C27.8154 26.64 28.1481 26.3076 28.1481 25.9C28.1481 25.4924 27.8154 25.16 27.4074 25.16H12.5926ZM5.18518 31.1234C4.7772 31.1234 4.44444 31.4529 4.44444 31.8634V33.3434C4.44444 33.7509 4.7772 34.0834 5.18518 34.0834C5.59317 34.0834 5.92593 33.7509 5.92593 33.3434V31.8634C5.92593 31.4529 5.59317 31.1234 5.18518 31.1234ZM8.88889 31.1234C8.4809 31.1234 8.14815 31.4529 8.14815 31.8634V33.3434C8.14815 33.7509 8.4809 34.0834 8.88889 34.0834C9.29687 34.0834 9.62963 33.7509 9.62963 33.3434V31.8634C9.62963 31.4529 9.29687 31.1234 8.88889 31.1234ZM12.5926 31.1234C12.1846 31.1234 11.8519 31.4529 11.8519 31.8634V33.3434C11.8519 33.7509 12.1846 34.0834 12.5926 34.0834C13.0006 34.0834 13.3333 33.7509 13.3333 33.3434V31.8634C13.3333 31.4529 13.0006 31.1234 12.5926 31.1234ZM16.2963 31.1234C15.8883 31.1234 15.5556 31.4529 15.5556 31.8634V33.3434C15.5556 33.7509 15.8883 34.0834 16.2963 34.0834C16.7043 34.0834 17.037 33.7509 17.037 33.3434V31.8634C17.037 31.4529 16.7043 31.1234 16.2963 31.1234ZM20 31.1234C19.592 31.1234 19.2593 31.4529 19.2593 31.8634V33.3434C19.2593 33.7509 19.592 34.0834 20 34.0834C20.408 34.0834 20.7407 33.7509 20.7407 33.3434V31.8634C20.7407 31.4529 20.408 31.1234 20 31.1234ZM23.7037 31.1234C23.2957 31.1234 22.963 31.4529 22.963 31.8634V33.3434C22.963 33.7509 23.2957 34.0834 23.7037 34.0834C24.1117 34.0834 24.4444 33.7509 24.4444 33.3434V31.8634C24.4444 31.4529 24.1117 31.1234 23.7037 31.1234ZM27.4074 31.1234C26.9994 31.1234 26.6667 31.4529 26.6667 31.8634V33.3434C26.6667 33.7509 26.9994 34.0834 27.4074 34.0834C27.8154 34.0834 28.1481 33.7509 28.1481 33.3434V31.8634C28.1481 31.4529 27.8154 31.1234 27.4074 31.1234ZM31.1111 31.1234C30.7031 31.1234 30.3704 31.4529 30.3704 31.8634V33.3434C30.3704 33.7509 30.7031 34.0834 31.1111 34.0834C31.5191 34.0834 31.8519 33.7509 31.8519 33.3434V31.8634C31.8519 31.4529 31.5191 31.1234 31.1111 31.1234ZM34.8148 31.1234C34.4068 31.1234 34.0741 31.4529 34.0741 31.8634V33.3434C34.0741 33.7509 34.4068 34.0834 34.8148 34.0834C35.2228 34.0834 35.5556 33.7509 35.5556 33.3434V31.8634C35.5556 31.4529 35.2228 31.1234 34.8148 31.1234Z" fill="white"/>
<path d="M17.0369 8.88C16.6289 8.88 16.2962 9.21243 16.2962 9.62C16.2962 10.0276 16.6289 10.36 17.0369 10.36H22.9629C23.3708 10.36 23.7036 10.0276 23.7036 9.62C23.7036 9.21243 23.3708 8.88 22.9629 8.88H17.0369ZM15.5554 14.8C15.3674 14.8 15.1764 14.8723 15.0317 15.0168L12.8095 17.2368C12.5201 17.5259 12.5201 17.9941 12.8095 18.2832C13.0988 18.5723 13.5676 18.5723 13.857 18.2832L14.8147 17.3264V22.94C14.8147 23.3476 15.1475 23.68 15.5554 23.68C15.9634 23.68 16.2962 23.3476 16.2962 22.94V17.3264L17.2539 18.2832C17.3986 18.4277 17.5867 18.5 17.7777 18.5C17.9686 18.5 18.1567 18.4277 18.3014 18.2832C18.5907 17.9941 18.5907 17.5259 18.3014 17.2368L16.0792 15.0168C15.9345 14.8723 15.7435 14.8 15.5554 14.8ZM24.4443 14.8C24.2563 14.8 24.0653 14.8723 23.9206 15.0168L21.6984 17.2368C21.409 17.5259 21.409 17.9941 21.6984 18.2832C21.9877 18.5723 22.4565 18.5723 22.7458 18.2832L23.7036 17.3264V22.94C23.7036 23.3476 24.0363 23.68 24.4443 23.68C24.8523 23.68 25.1851 23.3476 25.1851 22.94V17.3264L26.1428 18.2832C26.2875 18.4277 26.4756 18.5 26.6666 18.5C26.8575 18.5 27.0456 18.4277 27.1903 18.2832C27.4796 17.9941 27.4796 17.5259 27.1903 17.2368L24.9681 15.0168C24.8234 14.8723 24.6324 14.8 24.4443 14.8ZM12.5925 25.16C12.1845 25.16 11.8517 25.4924 11.8517 25.9C11.8517 26.3076 12.1845 26.64 12.5925 26.64H27.4073C27.8153 26.64 28.148 26.3076 28.148 25.9C28.148 25.4924 27.8153 25.16 27.4073 25.16H12.5925ZM5.18508 31.1234C4.77709 31.1234 4.44434 31.4529 4.44434 31.8634V33.3434C4.44434 33.7509 4.77709 34.0834 5.18508 34.0834C5.59306 34.0834 5.92582 33.7509 5.92582 33.3434V31.8634C5.92582 31.4529 5.59306 31.1234 5.18508 31.1234ZM8.88878 31.1234C8.48079 31.1234 8.14804 31.4529 8.14804 31.8634V33.3434C8.14804 33.7509 8.48079 34.0834 8.88878 34.0834C9.29677 34.0834 9.62952 33.7509 9.62952 33.3434V31.8634C9.62952 31.4529 9.29677 31.1234 8.88878 31.1234ZM12.5925 31.1234C12.1845 31.1234 11.8517 31.4529 11.8517 31.8634V33.3434C11.8517 33.7509 12.1845 34.0834 12.5925 34.0834C13.0005 34.0834 13.3332 33.7509 13.3332 33.3434V31.8634C13.3332 31.4529 13.0005 31.1234 12.5925 31.1234ZM16.2962 31.1234C15.8882 31.1234 15.5554 31.4529 15.5554 31.8634V33.3434C15.5554 33.7509 15.8882 34.0834 16.2962 34.0834C16.7042 34.0834 17.0369 33.7509 17.0369 33.3434V31.8634C17.0369 31.4529 16.7042 31.1234 16.2962 31.1234ZM19.9999 31.1234C19.5919 31.1234 19.2591 31.4529 19.2591 31.8634V33.3434C19.2591 33.7509 19.5919 34.0834 19.9999 34.0834C20.4079 34.0834 20.7406 33.7509 20.7406 33.3434V31.8634C20.7406 31.4529 20.4079 31.1234 19.9999 31.1234ZM23.7036 31.1234C23.2956 31.1234 22.9629 31.4529 22.9629 31.8634V33.3434C22.9629 33.7509 23.2956 34.0834 23.7036 34.0834C24.1116 34.0834 24.4443 33.7509 24.4443 33.3434V31.8634C24.4443 31.4529 24.1116 31.1234 23.7036 31.1234ZM27.4073 31.1234C26.9993 31.1234 26.6666 31.4529 26.6666 31.8634V33.3434C26.6666 33.7509 26.9993 34.0834 27.4073 34.0834C27.8153 34.0834 28.148 33.7509 28.148 33.3434V31.8634C28.148 31.4529 27.8153 31.1234 27.4073 31.1234ZM31.111 31.1234C30.703 31.1234 30.3703 31.4529 30.3703 31.8634V33.3434C30.3703 33.7509 30.703 34.0834 31.111 34.0834C31.519 34.0834 31.8517 33.7509 31.8517 33.3434V31.8634C31.8517 31.4529 31.519 31.1234 31.111 31.1234ZM34.8147 31.1234C34.4067 31.1234 34.074 31.4529 34.074 31.8634V33.3434C34.074 33.7509 34.4067 34.0834 34.8147 34.0834C35.2227 34.0834 35.5554 33.7509 35.5554 33.3434V31.8634C35.5554 31.4529 35.2227 31.1234 34.8147 31.1234Z" fill="#96D469"/>
</svg>
