<svg width="40" height="33" viewBox="0 0 40 33" fill="none" xmlns="http://www.w3.org/2000/svg">
<path opacity="0.3" d="M1.875 0C0.84125 0 0 0.84125 0 1.875C0 2.68875 0.524375 3.3765 1.25 3.63525V21.366C0.524375 21.6241 0 22.3113 0 23.125V26.875C0 27.9088 0.84125 28.75 1.875 28.75H5.05005C5.35505 30.8669 7.17562 32.5 9.375 32.5C11.5744 32.5 13.395 30.8669 13.7 28.75H27.55C27.855 30.8669 29.6756 32.5 31.875 32.5C34.0744 32.5 35.895 30.8669 36.2 28.75H38.125C39.1587 28.75 40 27.9088 40 26.875V23.125C40 22.3031 39.4649 21.6118 38.728 21.3586C38.7349 21.3224 38.75 21.2881 38.75 21.25V18.8599C38.75 18.2599 38.5782 17.6742 38.2532 17.1692L33.7634 10.1855C33.1859 9.2868 32.2034 8.75 31.1353 8.75H30V7.5C30 7.155 29.72 6.875 29.375 6.875C29.03 6.875 28.75 7.155 28.75 7.5V8.75H26.25V3.63525C26.9756 3.3765 27.5 2.68875 27.5 1.875C27.5 0.84125 26.6588 0 25.625 0H1.875ZM1.875 1.25H25.625C25.9694 1.25 26.25 1.53062 26.25 1.875C26.25 2.21937 25.9694 2.5 25.625 2.5H1.875C1.53062 2.5 1.25 2.21937 1.25 1.875C1.25 1.53062 1.53062 1.25 1.875 1.25ZM2.5 3.75H25V21.25H2.5V3.75ZM13.75 5C9.61438 5 6.25 8.36438 6.25 12.5C6.25 16.6356 9.61438 20 13.75 20C17.8856 20 21.25 16.6356 21.25 12.5C21.25 8.36438 17.8856 5 13.75 5ZM13.75 6.25C17.1963 6.25 20 9.05375 20 12.5C20 15.9462 17.1963 18.75 13.75 18.75C10.3038 18.75 7.5 15.9462 7.5 12.5C7.5 9.05375 10.3038 6.25 13.75 6.25ZM26.25 10H31.1353C31.7759 10 32.3662 10.3218 32.7124 10.8606L37.2021 17.8455C37.3971 18.1492 37.5 18.4999 37.5 18.8599V21.25H26.25V10ZM16.875 10.0342C16.7152 10.0342 16.5553 10.0951 16.4331 10.2173L12.5 14.1504L11.0669 12.7173C10.8225 12.4729 10.4275 12.4729 10.1831 12.7173C9.93873 12.9617 9.93873 13.3567 10.1831 13.6011L12.0581 15.4761C12.18 15.5979 12.34 15.6592 12.5 15.6592C12.66 15.6592 12.82 15.5979 12.9419 15.4761L17.3169 11.1011C17.5613 10.8567 17.5613 10.4617 17.3169 10.2173C17.1947 10.0951 17.0348 10.0342 16.875 10.0342ZM28.75 11.25C28.0606 11.25 27.5 11.8106 27.5 12.5V16.25C27.5 16.9394 28.0606 17.5 28.75 17.5H33.2471C33.7014 17.5 34.1208 17.2536 34.3408 16.8567C34.5614 16.4598 34.5485 15.9734 34.3079 15.5884L31.9641 11.8372C31.7335 11.469 31.3364 11.25 30.9033 11.25H28.75ZM28.75 12.5H30.9033L33.2507 16.25H28.75V12.5ZM28.125 18.75C27.78 18.75 27.5 19.03 27.5 19.375C27.5 19.72 27.78 20 28.125 20H29.375C29.72 20 30 19.72 30 19.375C30 19.03 29.72 18.75 29.375 18.75H28.125ZM1.875 22.5H38.125C38.4694 22.5 38.75 22.7806 38.75 23.125V26.875C38.75 27.2194 38.4694 27.5 38.125 27.5H36.2C35.895 25.3831 34.0744 23.75 31.875 23.75C29.6756 23.75 27.855 25.3831 27.55 27.5H13.7C13.395 25.3831 11.5744 23.75 9.375 23.75C7.17562 23.75 5.35505 25.3831 5.05005 27.5H1.875C1.53062 27.5 1.25 27.2194 1.25 26.875V26.25C1.595 26.25 1.875 25.97 1.875 25.625V24.375C1.875 24.03 1.595 23.75 1.25 23.75V23.125C1.25 22.7806 1.53062 22.5 1.875 22.5ZM4.375 23.75C4.03 23.75 3.75 24.03 3.75 24.375V25.625C3.75 25.97 4.03 26.25 4.375 26.25C4.72 26.25 5 25.97 5 25.625V24.375C5 24.03 4.72 23.75 4.375 23.75ZM14.375 23.75C14.03 23.75 13.75 24.03 13.75 24.375V25.625C13.75 25.97 14.03 26.25 14.375 26.25C14.72 26.25 15 25.97 15 25.625V24.375C15 24.03 14.72 23.75 14.375 23.75ZM17.5 23.75C17.155 23.75 16.875 24.03 16.875 24.375V25.625C16.875 25.97 17.155 26.25 17.5 26.25C17.845 26.25 18.125 25.97 18.125 25.625V24.375C18.125 24.03 17.845 23.75 17.5 23.75ZM20.625 23.75C20.28 23.75 20 24.03 20 24.375V25.625C20 25.97 20.28 26.25 20.625 26.25C20.97 26.25 21.25 25.97 21.25 25.625V24.375C21.25 24.03 20.97 23.75 20.625 23.75ZM23.75 23.75C23.405 23.75 23.125 24.03 23.125 24.375V25.625C23.125 25.97 23.405 26.25 23.75 26.25C24.095 26.25 24.375 25.97 24.375 25.625V24.375C24.375 24.03 24.095 23.75 23.75 23.75ZM26.875 23.75C26.53 23.75 26.25 24.03 26.25 24.375V25.625C26.25 25.97 26.53 26.25 26.875 26.25C27.22 26.25 27.5 25.97 27.5 25.625V24.375C27.5 24.03 27.22 23.75 26.875 23.75ZM36.875 23.75C36.53 23.75 36.25 24.03 36.25 24.375V25.625C36.25 25.97 36.53 26.25 36.875 26.25C37.22 26.25 37.5 25.97 37.5 25.625V24.375C37.5 24.03 37.22 23.75 36.875 23.75ZM9.375 25C11.0981 25 12.5 26.4019 12.5 28.125C12.5 29.8481 11.0981 31.25 9.375 31.25C7.65188 31.25 6.25 29.8481 6.25 28.125C6.25 26.4019 7.65188 25 9.375 25ZM31.875 25C33.5981 25 35 26.4019 35 28.125C35 29.8481 33.5981 31.25 31.875 31.25C30.1519 31.25 28.75 29.8481 28.75 28.125C28.75 26.4019 30.1519 25 31.875 25ZM9.375 26.875C9.04348 26.875 8.72554 27.0067 8.49112 27.2411C8.2567 27.4755 8.125 27.7935 8.125 28.125C8.125 28.4565 8.2567 28.7745 8.49112 29.0089C8.72554 29.2433 9.04348 29.375 9.375 29.375C9.70652 29.375 10.0245 29.2433 10.2589 29.0089C10.4933 28.7745 10.625 28.4565 10.625 28.125C10.625 27.7935 10.4933 27.4755 10.2589 27.2411C10.0245 27.0067 9.70652 26.875 9.375 26.875ZM31.875 26.875C31.5435 26.875 31.2255 27.0067 30.9911 27.2411C30.7567 27.4755 30.625 27.7935 30.625 28.125C30.625 28.4565 30.7567 28.7745 30.9911 29.0089C31.2255 29.2433 31.5435 29.375 31.875 29.375C32.2065 29.375 32.5245 29.2433 32.7589 29.0089C32.9933 28.7745 33.125 28.4565 33.125 28.125C33.125 27.7935 32.9933 27.4755 32.7589 27.2411C32.5245 27.0067 32.2065 26.875 31.875 26.875Z" fill="white"/>
<path d="M13.75 5C9.61438 5 6.25 8.36438 6.25 12.5C6.25 16.6356 9.61438 20 13.75 20C17.8856 20 21.25 16.6356 21.25 12.5C21.25 8.36438 17.8856 5 13.75 5ZM13.75 6.25C17.1962 6.25 20 9.05375 20 12.5C20 15.9462 17.1962 18.75 13.75 18.75C10.3038 18.75 7.5 15.9462 7.5 12.5C7.5 9.05375 10.3038 6.25 13.75 6.25ZM16.875 10.0342C16.7152 10.0342 16.5553 10.0951 16.4331 10.2173L12.5 14.1504L11.0669 12.7173C10.8225 12.4729 10.4275 12.4729 10.1831 12.7173C9.93873 12.9617 9.93873 13.3567 10.1831 13.6011L12.0581 15.4761C12.18 15.5979 12.34 15.6592 12.5 15.6592C12.66 15.6592 12.82 15.5979 12.9419 15.4761L17.3169 11.1011C17.5613 10.8567 17.5613 10.4617 17.3169 10.2173C17.1947 10.0951 17.0348 10.0342 16.875 10.0342Z" fill="#96D469"/>
</svg>
