<svg width="44" height="42" viewBox="0 0 44 42" fill="none" xmlns="http://www.w3.org/2000/svg">
<g clip-path="url(#clip0_1_264)">
<path d="M43.653 10.5316L40.8347 7.69228C40.6118 7.47103 40.3114 7.34701 39.9985 7.34701C39.6855 7.34701 39.3852 7.47103 39.1622 7.69228L34.1697 12.7095V4.21264C34.1642 3.09708 33.7219 2.0288 32.939 1.23997C32.156 0.451144 31.0957 0.00553635 29.9884 0L4.18132 0C3.07236 0 2.00883 0.44383 1.22468 1.23385C0.44053 2.02388 1.16519e-10 3.09538 1.16519e-10 4.21264L1.1652e-10 5.29107C-3.34712e-06 5.47469 0.0721099 5.65086 0.200592 5.78109C0.329073 5.91132 0.503484 5.98505 0.685736 5.98616H7.02879V37.7663C7.03429 38.8819 7.47658 39.9501 8.25954 40.739C9.04251 41.5278 10.1029 41.9734 11.2101 41.9789H35.2652C36.3725 41.9734 37.4328 41.5278 38.2158 40.739C38.9988 39.9501 39.441 38.8819 39.4465 37.7663C39.4488 37.5849 39.3797 37.41 39.2543 37.2797C39.129 37.1495 38.9576 37.0745 38.7775 37.0712H34.1781V21.7667L43.653 12.2167C43.8736 11.9926 43.9973 11.6897 43.9973 11.3741C43.9973 11.0585 43.8736 10.7557 43.653 10.5316ZM39.6054 14.323C33.6387 20.3428 29.6205 24.3954 23.6704 30.3858L22.8843 29.5896L38.8152 13.5394L39.6054 14.323ZM20.4885 29.1388C20.5595 29.2062 22.4286 31.0935 22.3617 31.0219L19.74 31.7801L20.4885 29.1388ZM21.9101 28.6122L21.1198 27.8034L37.0548 11.7617L37.8451 12.5579L21.9101 28.6122ZM7.02879 4.6339H1.37565V4.24634C1.37565 3.87237 1.44876 3.50206 1.59081 3.15656C1.73286 2.81105 1.94107 2.49712 2.20354 2.23268C2.46601 1.96824 2.77761 1.75848 3.12054 1.61537C3.46348 1.47225 3.83103 1.3986 4.20222 1.3986C4.57341 1.3986 4.94097 1.47225 5.28391 1.61537C5.62684 1.75848 5.93844 1.96824 6.20091 2.23268C6.46338 2.49712 6.67159 2.81105 6.81363 3.15656C6.95568 3.50206 7.02879 3.87237 7.02879 4.24634V4.6339ZM35.2652 40.614H14.3168C14.8693 40.0151 15.2369 39.2672 15.3747 38.4614H38.004C37.8504 39.0761 37.4976 39.6217 37.0016 40.0116C36.5055 40.4015 35.8944 40.6135 35.2652 40.614ZM32.7983 37.0712H14.7433C14.6529 37.0707 14.5633 37.0881 14.4796 37.1226C14.3959 37.1571 14.3199 37.2079 14.2557 37.2721C14.1916 37.3363 14.1407 37.4126 14.106 37.4967C14.0713 37.5808 14.0534 37.671 14.0534 37.7621C14.0534 38.5174 13.7556 39.2417 13.2255 39.7757C12.6954 40.3098 11.9765 40.6098 11.2268 40.6098C10.4772 40.6098 9.75823 40.3098 9.22815 39.7757C8.69806 39.2417 8.40027 38.5174 8.40027 37.7621V4.2337C8.40038 3.17925 8.00798 2.16309 7.30058 1.38596H29.9717C30.7174 1.38704 31.4326 1.68453 31.9618 2.2138C32.4911 2.74307 32.7916 3.46137 32.7983 4.21264V14.0955L19.6522 27.3274C19.5752 27.4141 19.5168 27.5159 19.4808 27.6265L18.0717 32.5974C18.0375 32.7169 18.0361 32.8435 18.0678 32.9637C18.0995 33.0839 18.163 33.1932 18.2514 33.2798C18.3387 33.3671 18.4474 33.4295 18.5664 33.4606C18.6854 33.4917 18.8105 33.4904 18.9288 33.4568L23.8628 32.016C23.9718 31.9761 24.0724 31.9161 24.1596 31.8391L32.7983 23.1695V37.0712ZM40.5797 13.3541C40.5086 13.2867 37.8995 10.6538 38.0249 10.7844L39.9943 8.8002L42.5491 11.3699L40.5797 13.3541Z" fill="#0AAF60"/>
<path d="M15.4709 5.25735H11.1558C11.0643 5.2551 10.9733 5.27131 10.8882 5.30502C10.8031 5.33873 10.7255 5.38926 10.66 5.45364C10.5946 5.51802 10.5425 5.59495 10.507 5.67988C10.4715 5.76482 10.4533 5.85606 10.4533 5.94822V10.283C10.4527 10.3739 10.4701 10.464 10.5044 10.5481C10.5386 10.6321 10.5891 10.7085 10.6529 10.7728C10.7167 10.8371 10.7925 10.8879 10.876 10.9224C10.9594 10.957 11.0488 10.9745 11.139 10.9739H15.4709C15.5611 10.9745 15.6505 10.957 15.7339 10.9224C15.8174 10.8879 15.8932 10.8371 15.957 10.7728C16.0208 10.7085 16.0713 10.6321 16.1055 10.5481C16.1398 10.464 16.1572 10.3739 16.1566 10.283V5.94822C16.1566 5.85749 16.1389 5.76765 16.1044 5.68383C16.0699 5.60001 16.0194 5.52385 15.9558 5.4597C15.8921 5.39555 15.8165 5.34466 15.7333 5.30994C15.6501 5.27522 15.5609 5.25735 15.4709 5.25735ZM14.7684 9.58794H11.8415V6.63909H14.7684V9.58794Z" fill="#0AAF60"/>
<path d="M15.4709 16.5094H11.1558C11.0642 16.5065 10.9729 16.5223 10.8875 16.5558C10.8021 16.5893 10.7243 16.6398 10.6587 16.7043C10.5932 16.7688 10.5412 16.846 10.5059 16.9312C10.4706 17.0164 10.4527 17.1079 10.4533 17.2002V21.535C10.4527 21.6259 10.4701 21.716 10.5044 21.8001C10.5386 21.8842 10.5891 21.9605 10.6529 22.0248C10.7167 22.0891 10.7925 22.1399 10.876 22.1745C10.9594 22.209 11.0488 22.2265 11.139 22.2259H15.4709C15.5611 22.2265 15.6505 22.209 15.7339 22.1745C15.8174 22.1399 15.8932 22.0891 15.957 22.0248C16.0208 21.9605 16.0713 21.8842 16.1055 21.8001C16.1398 21.716 16.1572 21.6259 16.1566 21.535V17.2002C16.1572 17.1093 16.1398 17.0193 16.1055 16.9352C16.0713 16.8511 16.0208 16.7747 15.957 16.7105C15.8932 16.6462 15.8174 16.5953 15.7339 16.5608C15.6505 16.5263 15.5611 16.5088 15.4709 16.5094ZM14.7684 20.8399H11.8415V17.8911H14.7684V20.8399Z" fill="#0AAF60"/>
<path d="M15.4709 27.7613H11.1558C11.0642 27.7585 10.9729 27.7743 10.8875 27.8078C10.8021 27.8413 10.7243 27.8918 10.6587 27.9563C10.5932 28.0208 10.5412 28.0979 10.5059 28.1831C10.4706 28.2684 10.4527 28.3599 10.4533 28.4522V32.787C10.4527 32.8779 10.4701 32.968 10.5044 33.052C10.5386 33.1361 10.5891 33.2125 10.6529 33.2768C10.7167 33.341 10.7925 33.3919 10.876 33.4264C10.9594 33.4609 11.0488 33.4784 11.139 33.4779H15.4709C15.5611 33.4784 15.6505 33.4609 15.7339 33.4264C15.8174 33.3919 15.8932 33.341 15.957 33.2768C16.0208 33.2125 16.0713 33.1361 16.1055 33.052C16.1398 32.968 16.1572 32.8779 16.1566 32.787V28.4522C16.1572 28.3613 16.1398 28.2712 16.1055 28.1871C16.0713 28.1031 16.0208 28.0267 15.957 27.9624C15.8932 27.8982 15.8174 27.8473 15.7339 27.8128C15.6505 27.7782 15.5611 27.7608 15.4709 27.7613ZM14.7684 32.0919H11.8415V29.1431H14.7684V32.0919Z" fill="#0AAF60"/>
<path d="M18.5232 7.42267H30.0428C30.1376 7.43013 30.2329 7.41774 30.3228 7.3863C30.4127 7.35485 30.4951 7.30503 30.5649 7.23995C30.6348 7.17487 30.6905 7.09595 30.7286 7.00814C30.7667 6.92033 30.7864 6.82553 30.7864 6.72969C30.7864 6.63386 30.7667 6.53905 30.7286 6.45124C30.6905 6.36343 30.6348 6.28451 30.5649 6.21943C30.4951 6.15436 30.4127 6.10453 30.3228 6.07309C30.2329 6.04164 30.1376 6.02926 30.0428 6.03671H18.5232C18.3501 6.05033 18.1884 6.12924 18.0704 6.2577C17.9525 6.38615 17.887 6.5547 17.887 6.72969C17.887 6.90468 17.9525 7.07323 18.0704 7.20169C18.1884 7.33015 18.3501 7.40906 18.5232 7.42267Z" fill="#212E55"/>
<path d="M18.5232 10.1946H30.0428C30.1376 10.202 30.2329 10.1897 30.3228 10.1582C30.4127 10.1268 30.4951 10.0769 30.5649 10.0119C30.6348 9.94679 30.6905 9.86786 30.7286 9.78005C30.7667 9.69224 30.7864 9.59744 30.7864 9.5016C30.7864 9.40577 30.7667 9.31097 30.7286 9.22316C30.6905 9.13535 30.6348 9.05642 30.5649 8.99134C30.4951 8.92627 30.4127 8.87644 30.3228 8.845C30.2329 8.81355 30.1376 8.80117 30.0428 8.80862H18.5232C18.3501 8.82224 18.1884 8.90115 18.0704 9.02961C17.9525 9.15807 17.887 9.32662 17.887 9.5016C17.887 9.67659 17.9525 9.84514 18.0704 9.9736C18.1884 10.1021 18.3501 10.181 18.5232 10.1946Z" fill="#212E55"/>
<path d="M18.5232 18.6747H24.9708C25.144 18.661 25.3057 18.5821 25.4236 18.4537C25.5416 18.3252 25.6071 18.1567 25.6071 17.9817C25.6071 17.8067 25.5416 17.6381 25.4236 17.5097C25.3057 17.3812 25.144 17.3023 24.9708 17.2887H18.5232C18.3501 17.3023 18.1884 17.3812 18.0704 17.5097C17.9525 17.6381 17.887 17.8067 17.887 17.9817C17.887 18.1567 17.9525 18.3252 18.0704 18.4537C18.1884 18.5821 18.3501 18.661 18.5232 18.6747Z" fill="#212E55"/>
<path d="M22.2195 21.4465C22.3144 21.454 22.4097 21.4416 22.4996 21.4102C22.5894 21.3787 22.6719 21.3289 22.7417 21.2638C22.8115 21.1987 22.8672 21.1198 22.9053 21.032C22.9434 20.9442 22.9631 20.8494 22.9631 20.7536C22.9631 20.6577 22.9434 20.5629 22.9053 20.4751C22.8672 20.3873 22.8115 20.3084 22.7417 20.2433C22.6719 20.1782 22.5894 20.1284 22.4996 20.097C22.4097 20.0655 22.3144 20.0531 22.2195 20.0606H18.5232C18.3501 20.0742 18.1884 20.1531 18.0704 20.2816C17.9525 20.41 17.887 20.5786 17.887 20.7536C17.887 20.9285 17.9525 21.0971 18.0704 21.2256C18.1884 21.354 18.3501 21.4329 18.5232 21.4465H22.2195Z" fill="#212E55"/>
</g>
<defs>
<clipPath id="clip0_1_264">
<rect width="44" height="42" fill="white"/>
</clipPath>
</defs>
</svg>
