<svg width="36" height="41" viewBox="0 0 36 41" fill="none" xmlns="http://www.w3.org/2000/svg">
<path opacity="0.3" d="M9.45433 0C8.52945 0 7.65865 0.367255 7.00691 1.03549L1.01412 7.15457C0.359675 7.8228 0 8.70919 0 9.65356V34.6379C0 35.806 0.932993 36.7586 2.07692 36.7586H5.53846V38.8793C5.53846 40.0473 6.47145 41 7.61539 41H33.9231C35.067 41 36 40.0473 36 38.8793V6.36207C36 5.19403 35.067 4.24138 33.9231 4.24138H30.4615V2.12069C30.4615 0.952653 29.5285 0 28.3846 0H9.45433ZM9.69231 1.41379H28.3846C28.7659 1.41379 29.0769 1.73134 29.0769 2.12069V29.6897C28.6929 29.6897 28.3846 30.0044 28.3846 30.3966V31.8103C28.3846 32.2024 28.6929 32.5172 29.0769 32.5172V34.6379C29.0769 35.0273 28.7659 35.3448 28.3846 35.3448H2.07692C1.69561 35.3448 1.38462 35.0273 1.38462 34.6379V32.5172C1.76863 32.5172 2.07692 32.2024 2.07692 31.8103V30.3966C2.07692 30.0044 1.76863 29.6897 1.38462 29.6897V9.89655H7.61539C8.75932 9.89655 9.69231 8.9439 9.69231 7.77586V1.41379ZM8.30769 1.76724V7.77586C8.30769 8.16521 7.99669 8.48276 7.61539 8.48276H1.73077C1.80919 8.36402 1.89573 8.25357 1.99309 8.15416L7.98588 2.03509C8.08594 1.93292 8.19411 1.84456 8.30769 1.76724ZM30.4615 5.65517H33.9231C34.3044 5.65517 34.6154 5.97272 34.6154 6.36207V38.8793C34.6154 39.2687 34.3044 39.5862 33.9231 39.5862H7.61539C7.23408 39.5862 6.92308 39.2687 6.92308 38.8793V36.7586H28.3846C29.5285 36.7586 30.4615 35.806 30.4615 34.6379V5.65517ZM7.61539 12.7241C7.23137 12.7241 6.92308 13.0389 6.92308 13.431C6.92308 13.8231 7.23137 14.1379 7.61539 14.1379H17.3077C17.6917 14.1379 18 13.8231 18 13.431C18 13.0389 17.6917 12.7241 17.3077 12.7241H7.61539ZM20.0769 12.7241C19.6929 12.7241 19.3846 13.0389 19.3846 13.431C19.3846 13.8231 19.6929 14.1379 20.0769 14.1379H22.8462C23.2302 14.1379 23.5385 13.8231 23.5385 13.431C23.5385 13.0389 23.2302 12.7241 22.8462 12.7241H20.0769ZM7.61539 15.5517C7.23137 15.5517 6.92308 15.8665 6.92308 16.2586C6.92308 16.6507 7.23137 16.9655 7.61539 16.9655H20.0769C20.4609 16.9655 20.7692 16.6507 20.7692 16.2586C20.7692 15.8665 20.4609 15.5517 20.0769 15.5517H7.61539ZM7.61539 19.7931C7.23137 19.7931 6.92308 20.1079 6.92308 20.5C6.92308 20.8921 7.23137 21.2069 7.61539 21.2069H21.4615C21.8456 21.2069 22.1538 20.8921 22.1538 20.5C22.1538 20.1079 21.8456 19.7931 21.4615 19.7931H7.61539ZM7.61539 22.6207C7.23137 22.6207 6.92308 22.9355 6.92308 23.3276C6.92308 23.7197 7.23137 24.0345 7.61539 24.0345H14.5385C14.9225 24.0345 15.2308 23.7197 15.2308 23.3276C15.2308 22.9355 14.9225 22.6207 14.5385 22.6207H7.61539ZM4.84615 29.6897C4.46214 29.6897 4.15385 30.0044 4.15385 30.3966V31.8103C4.15385 32.2024 4.46214 32.5172 4.84615 32.5172C5.23017 32.5172 5.53846 32.2024 5.53846 31.8103V30.3966C5.53846 30.0044 5.23017 29.6897 4.84615 29.6897ZM8.30769 29.6897C7.92368 29.6897 7.61539 30.0044 7.61539 30.3966V31.8103C7.61539 32.2024 7.92368 32.5172 8.30769 32.5172C8.69171 32.5172 9 32.2024 9 31.8103V30.3966C9 30.0044 8.69171 29.6897 8.30769 29.6897ZM11.7692 29.6897C11.3852 29.6897 11.0769 30.0044 11.0769 30.3966V31.8103C11.0769 32.2024 11.3852 32.5172 11.7692 32.5172C12.1532 32.5172 12.4615 32.2024 12.4615 31.8103V30.3966C12.4615 30.0044 12.1532 29.6897 11.7692 29.6897ZM15.2308 29.6897C14.8468 29.6897 14.5385 30.0044 14.5385 30.3966V31.8103C14.5385 32.2024 14.8468 32.5172 15.2308 32.5172C15.6148 32.5172 15.9231 32.2024 15.9231 31.8103V30.3966C15.9231 30.0044 15.6148 29.6897 15.2308 29.6897ZM18.6923 29.6897C18.3083 29.6897 18 30.0044 18 30.3966V31.8103C18 32.2024 18.3083 32.5172 18.6923 32.5172C19.0763 32.5172 19.3846 32.2024 19.3846 31.8103V30.3966C19.3846 30.0044 19.0763 29.6897 18.6923 29.6897ZM22.1538 29.6897C21.7698 29.6897 21.4615 30.0044 21.4615 30.3966V31.8103C21.4615 32.2024 21.7698 32.5172 22.1538 32.5172C22.5379 32.5172 22.8462 32.2024 22.8462 31.8103V30.3966C22.8462 30.0044 22.5379 29.6897 22.1538 29.6897ZM25.6154 29.6897C25.2314 29.6897 24.9231 30.0044 24.9231 30.3966V31.8103C24.9231 32.2024 25.2314 32.5172 25.6154 32.5172C25.9994 32.5172 26.3077 32.2024 26.3077 31.8103V30.3966C26.3077 30.0044 25.9994 29.6897 25.6154 29.6897Z" fill="white"/>
<path d="M7.61554 12.7241C7.23152 12.7241 6.92323 13.0389 6.92323 13.431C6.92323 13.8231 7.23152 14.1379 7.61554 14.1379H17.3078C17.6919 14.1379 18.0002 13.8231 18.0002 13.431C18.0002 13.0389 17.6919 12.7241 17.3078 12.7241H7.61554ZM20.0771 12.7241C19.6931 12.7241 19.3848 13.0389 19.3848 13.431C19.3848 13.8231 19.6931 14.1379 20.0771 14.1379H22.8463C23.2303 14.1379 23.5386 13.8231 23.5386 13.431C23.5386 13.0389 23.2303 12.7241 22.8463 12.7241H20.0771ZM7.61554 15.5517C7.23152 15.5517 6.92323 15.8665 6.92323 16.2586C6.92323 16.6507 7.23152 16.9655 7.61554 16.9655H20.0771C20.4611 16.9655 20.7694 16.6507 20.7694 16.2586C20.7694 15.8665 20.4611 15.5517 20.0771 15.5517H7.61554ZM7.61554 19.7931C7.23152 19.7931 6.92323 20.1079 6.92323 20.5C6.92323 20.8921 7.23152 21.2069 7.61554 21.2069H21.4617C21.8457 21.2069 22.154 20.8921 22.154 20.5C22.154 20.1079 21.8457 19.7931 21.4617 19.7931H7.61554ZM7.61554 22.6207C7.23152 22.6207 6.92323 22.9355 6.92323 23.3276C6.92323 23.7197 7.23152 24.0345 7.61554 24.0345H14.5386C14.9226 24.0345 15.2309 23.7197 15.2309 23.3276C15.2309 22.9355 14.9226 22.6207 14.5386 22.6207H7.61554ZM4.8463 29.6896C4.46229 29.6896 4.154 30.0044 4.154 30.3965V31.8103C4.154 32.2024 4.46229 32.5172 4.8463 32.5172C5.23032 32.5172 5.53861 32.2024 5.53861 31.8103V30.3965C5.53861 30.0044 5.23032 29.6896 4.8463 29.6896ZM8.30784 29.6896C7.92383 29.6896 7.61554 30.0044 7.61554 30.3965V31.8103C7.61554 32.2024 7.92383 32.5172 8.30784 32.5172C8.69186 32.5172 9.00015 32.2024 9.00015 31.8103V30.3965C9.00015 30.0044 8.69186 29.6896 8.30784 29.6896ZM11.7694 29.6896C11.3854 29.6896 11.0771 30.0044 11.0771 30.3965V31.8103C11.0771 32.2024 11.3854 32.5172 11.7694 32.5172C12.1534 32.5172 12.4617 32.2024 12.4617 31.8103V30.3965C12.4617 30.0044 12.1534 29.6896 11.7694 29.6896ZM15.2309 29.6896C14.8469 29.6896 14.5386 30.0044 14.5386 30.3965V31.8103C14.5386 32.2024 14.8469 32.5172 15.2309 32.5172C15.6149 32.5172 15.9232 32.2024 15.9232 31.8103V30.3965C15.9232 30.0044 15.6149 29.6896 15.2309 29.6896ZM18.6925 29.6896C18.3084 29.6896 18.0002 30.0044 18.0002 30.3965V31.8103C18.0002 32.2024 18.3084 32.5172 18.6925 32.5172C19.0765 32.5172 19.3848 32.2024 19.3848 31.8103V30.3965C19.3848 30.0044 19.0765 29.6896 18.6925 29.6896ZM22.154 29.6896C21.77 29.6896 21.4617 30.0044 21.4617 30.3965V31.8103C21.4617 32.2024 21.77 32.5172 22.154 32.5172C22.538 32.5172 22.8463 32.2024 22.8463 31.8103V30.3965C22.8463 30.0044 22.538 29.6896 22.154 29.6896ZM25.6155 29.6896C25.2315 29.6896 24.9232 30.0044 24.9232 30.3965V31.8103C24.9232 32.2024 25.2315 32.5172 25.6155 32.5172C25.9995 32.5172 26.3078 32.2024 26.3078 31.8103V30.3965C26.3078 30.0044 25.9995 29.6896 25.6155 29.6896Z" fill="#96D469"/>
</svg>
