<svg width="20" height="21" viewBox="0 0 20 21" fill="none" xmlns="http://www.w3.org/2000/svg">
<path d="M13.7982 10.5169C13.7982 13.793 13.7968 17.0691 13.7941 20.3452C13.7967 20.5075 13.76 20.668 13.687 20.8125C13.5876 20.9932 13.3895 21.0185 13.1944 20.9902C10.552 20.604 7.90964 20.2197 5.26725 19.8375C3.9752 19.65 2.68256 19.4653 1.38932 19.2835C0.820038 19.2034 0.5 18.8276 0.5 18.2145C0.5 14.225 0.5 10.2348 0.5 6.24409C0.5 5.08701 0.5 3.92973 0.5 2.77225C0.5 2.12848 0.820038 1.78701 1.45595 1.69788C3.16083 1.45699 4.86334 1.20707 6.56703 0.96076L12.0725 0.166424C12.4104 0.117644 12.7483 0.0712724 13.0838 0.0188787C13.6013 -0.0612173 13.7976 0.107406 13.7976 0.642785C13.7984 3.93415 13.7986 7.22551 13.7982 10.5169ZM11.8946 2.13209L2.40952 3.50637V17.4822L11.8941 18.8553L11.8946 2.13209Z" fill="#212E55"/>
<path d="M14.7684 19.151V17.2275H17.5899V3.77074H14.769V1.837H14.976C16.142 1.837 17.3075 1.837 18.4727 1.837C19.1121 1.837 19.4994 2.22483 19.5 2.87403C19.5 7.9532 19.5 13.032 19.5 18.1103C19.5 18.7607 19.1133 19.1486 18.4745 19.1498C17.3089 19.1498 16.1434 19.1498 14.9778 19.1498L14.7684 19.151Z" fill="#212E55"/>
<path d="M7.15357 8.83667L7.86443 7.81288C8.10238 7.46841 8.33616 7.12093 8.58184 6.78187C8.60663 6.74801 8.63789 6.71952 8.67376 6.69811C8.70962 6.6767 8.74937 6.66279 8.79064 6.65721C9.47355 6.64818 10.1559 6.65239 10.8388 6.6536C10.8665 6.65822 10.8936 6.66589 10.9197 6.67648C10.8715 6.75176 10.8316 6.81981 10.7864 6.88485C9.99564 8.02908 9.20367 9.17331 8.41052 10.3175C8.31356 10.4567 8.31653 10.5458 8.41528 10.6867C9.20883 11.8189 9.99227 12.9589 10.7787 14.0971C10.8245 14.1634 10.8673 14.2314 10.928 14.3235C10.8501 14.3314 10.7959 14.341 10.7418 14.341C10.1106 14.341 9.48009 14.338 8.84953 14.3452C8.79164 14.3494 8.73375 14.337 8.68244 14.3096C8.63113 14.2821 8.58845 14.2406 8.55924 14.1899C8.1006 13.5172 7.63482 12.8493 7.15238 12.1513C7.09289 12.232 7.04828 12.2946 7.00366 12.3591C6.58726 12.9613 6.16728 13.5635 5.75445 14.1688C5.72251 14.2263 5.67508 14.2735 5.61769 14.3049C5.5603 14.3362 5.4953 14.3504 5.43024 14.3458C4.75626 14.3368 4.08109 14.3422 3.36071 14.3422C3.42019 14.2465 3.46184 14.1808 3.50526 14.1176C4.3006 12.9673 5.09296 11.8159 5.89483 10.6704C5.98942 10.5349 5.97931 10.4482 5.88948 10.3199C5.09355 9.17933 4.30159 8.0351 3.51359 6.88726C3.46897 6.82222 3.42793 6.75357 3.36309 6.65119H4.1489C4.57899 6.65119 5.00968 6.65782 5.43976 6.64758C5.50138 6.64257 5.56312 6.6555 5.61771 6.68485C5.67231 6.71419 5.71748 6.75872 5.7479 6.81319C6.15896 7.41963 6.58071 8.01764 6.99712 8.62288C7.04114 8.68731 7.09051 8.75055 7.15357 8.83667Z" fill="#212E55"/>
</svg>
