<svg width="47" height="55" viewBox="0 0 47 55" fill="none" xmlns="http://www.w3.org/2000/svg">
<g clip-path="url(#clip0_7_711)">
<path d="M23.1986 0L35.5685 7.19548V18.4812L32.5131 20.2576V10.7556L24.7304 15.2846V24.6902L23.2066 25.5773L21.6749 24.688V15.2846L13.8973 10.7585V20.4551L10.8418 18.678V7.19621L23.1986 0ZM23.1986 12.6138L30.985 8.08404L23.1986 3.55642L15.421 8.0855L23.1986 12.6138Z" fill="#65BE28"/>
<path d="M22.9761 28.3497V26.5667L24.5079 25.6774L34.0404 31.5397L41.8181 27.0099L33.9814 22.4757L37.0383 20.6964L46.4016 26.1206V40.5152L34.0404 47.7166L23.2066 42.1973V38.6379L32.5131 43.2672V34.212L22.9761 28.3497ZM35.5685 43.2636L43.3461 38.7352V29.6763L35.5685 34.2105V43.2636Z" fill="#65BE28"/>
<path d="M13.8915 34.212V43.2672L23.1972 38.6379V42.1973L12.3619 47.7158L9.53674e-06 40.5152V26.1206L9.36334 20.6964L12.4203 22.4794L4.5843 27.0136L12.3619 31.5397L21.8937 25.6774L23.4255 26.5667V28.3497L13.8915 34.212ZM10.8331 34.212L3.05547 29.6778V38.7352L10.8331 43.2636V34.212Z" fill="#65BE28"/>
<path d="M1.60835 12.6519L23.0703 24.8649H23.2548L44.7889 12.6519L46.3936 13.6026V15.4309L24.5845 27.9438V53.2402L23.1928 54.0228V54.0579L23.1629 54.0396L23.1315 54.0579V54.0213L21.8128 53.2402V27.9438L0.00366211 15.4309V13.6026L1.60835 12.6519Z" fill="#65BE28"/>
</g>
<defs>
<clipPath id="clip0_7_711">
<rect width="46.4016" height="54.0579" fill="white" transform="matrix(-1 0 0 1 46.4016 0)"/>
</clipPath>
</defs>
</svg>
