<svg width="44" height="44" viewBox="0 0 44 44" fill="none" xmlns="http://www.w3.org/2000/svg">
<g clip-path="url(#clip0_1_223)">
<path d="M43.3143 38.6187H41.9386V11.599H43.3101C43.4003 11.5996 43.4897 11.5822 43.5732 11.548C43.6566 11.5137 43.7324 11.4632 43.7962 11.3994C43.86 11.3356 43.9105 11.2598 43.9448 11.1764C43.979 11.0929 43.9964 11.0035 43.9958 10.9133V7.15013C43.996 7.00318 43.9489 6.86006 43.8616 6.74187C43.7743 6.62368 43.6513 6.53667 43.5108 6.49366L22.1944 0.0293425C22.0581 -0.0115712 21.9127 -0.0115712 21.7763 0.0293425L0.489214 6.48111C0.347919 6.52338 0.224015 6.61007 0.135889 6.72833C0.0477621 6.84658 0.0001088 6.9901 0 7.13758L0 10.9008C0 10.9908 0.0177371 11.08 0.0521985 11.1632C0.08666 11.2464 0.137171 11.322 0.200847 11.3857C0.264524 11.4493 0.340119 11.4998 0.423316 11.5343C0.506514 11.5688 0.595684 11.5865 0.685736 11.5865H2.06557V38.6187H0.689917C0.516757 38.6322 0.355063 38.7106 0.237122 38.8381C0.11918 38.9656 0.0536693 39.1329 0.0536693 39.3065C0.0536693 39.4802 0.11918 39.6475 0.237122 39.775C0.355063 39.9025 0.516757 39.9809 0.689917 39.9944H17.365C17.526 41.1089 18.0831 42.128 18.9343 42.8652C19.7856 43.6023 20.8739 44.0081 22 44.0081C23.1261 44.0081 24.2144 43.6023 25.0657 42.8652C25.9169 42.128 26.474 41.1089 26.635 39.9944H43.3143C43.4874 39.9809 43.6491 39.9025 43.7671 39.775C43.885 39.6475 43.9505 39.4802 43.9505 39.3065C43.9505 39.1329 43.885 38.9656 43.7671 38.8381C43.6491 38.7106 43.4874 38.6322 43.3143 38.6187ZM1.37565 7.6477L21.9937 1.405L42.6243 7.6477V10.2234H1.37565V7.6477ZM7.82324 35.5622H9.34106C9.4359 35.5696 9.53124 35.5573 9.6211 35.5261C9.71095 35.4949 9.79339 35.4454 9.86322 35.3808C9.93305 35.3162 9.98877 35.2379 10.0269 35.1507C10.065 35.0636 10.0846 34.9695 10.0846 34.8743C10.0846 34.7792 10.065 34.6851 10.0269 34.598C9.98877 34.5108 9.93305 34.4325 9.86322 34.3679C9.79339 34.3033 9.71095 34.2538 9.6211 34.2226C9.53124 34.1914 9.4359 34.1791 9.34106 34.1865H7.82324V15.726H36.1768V34.1865H34.6589C34.5641 34.1791 34.4688 34.1914 34.3789 34.2226C34.289 34.2538 34.2066 34.3033 34.1368 34.3679C34.067 34.4325 34.0112 34.5108 33.9731 34.598C33.935 34.6851 33.9154 34.7792 33.9154 34.8743C33.9154 34.9695 33.935 35.0636 33.9731 35.1507C34.0112 35.2379 34.067 35.3162 34.1368 35.3808C34.2066 35.4454 34.289 35.4949 34.3789 35.5261C34.4688 35.5573 34.5641 35.5696 34.6589 35.5622H36.1768V38.6187H26.635C26.4925 37.6789 26.0687 36.8043 25.4193 36.1101C24.7699 35.416 23.9255 34.9348 22.9972 34.7301C24.1722 32.6143 27.1786 30.4233 28.964 29.2693L28.688 30.4484C28.6557 30.6229 28.6918 30.8031 28.7889 30.9516C28.886 31.1001 29.0366 31.2055 29.2094 31.2459C29.3822 31.2863 29.5639 31.2585 29.7168 31.1684C29.8696 31.0783 29.9819 30.9328 30.0302 30.762L30.6825 27.9773C30.7027 27.8893 30.7053 27.7982 30.6903 27.7093C30.6752 27.6203 30.6427 27.5352 30.5947 27.4588C30.5004 27.3056 30.3506 27.1948 30.1766 27.1494L27.3834 26.5013C27.206 26.4602 27.0195 26.4914 26.8651 26.5878C26.7106 26.6843 26.6008 26.8381 26.5597 27.0156C26.5187 27.193 26.5498 27.3795 26.6463 27.5339C26.7427 27.6884 26.8966 27.7983 27.074 27.8393L28.2323 28.1111C26.681 29.1062 24.2516 30.8415 22.6878 32.7816V24.7075L23.5241 25.5437C23.6527 25.6729 23.8274 25.7457 24.0097 25.7461C24.192 25.7465 24.3671 25.6745 24.4962 25.5458C24.6254 25.4172 24.6982 25.2425 24.6986 25.0602C24.699 24.8779 24.627 24.7029 24.4983 24.5737L22.4829 22.5792C22.4193 22.5155 22.3436 22.4649 22.2604 22.4304C22.1772 22.3959 22.088 22.3782 21.9979 22.3782C21.9078 22.3782 21.8186 22.3959 21.7354 22.4304C21.6522 22.4649 21.5766 22.5155 21.5129 22.5792L19.4891 24.5862C19.3605 24.7154 19.2884 24.8904 19.2888 25.0727C19.2892 25.255 19.362 25.4297 19.4912 25.5584C19.6204 25.687 19.7954 25.7591 19.9777 25.7587C20.16 25.7583 20.3347 25.6855 20.4634 25.5563L21.2996 24.72V32.7816C19.7275 30.8415 17.3107 29.1104 15.7636 28.1111L16.9218 27.8393C17.0992 27.7983 17.2531 27.6884 17.3495 27.5339C17.446 27.3795 17.4771 27.193 17.4361 27.0156C17.3951 26.8381 17.2852 26.6843 17.1307 26.5878C16.9763 26.4914 16.7898 26.4602 16.6124 26.5013L13.8193 27.1494C13.7306 27.1705 13.6469 27.2089 13.5731 27.2623C13.4992 27.3158 13.4366 27.3833 13.3889 27.461C13.3411 27.5386 13.3091 27.6249 13.2947 27.7149C13.2803 27.805 13.2838 27.8969 13.305 27.9856L13.9572 30.7704C14.0056 30.9411 14.1178 31.0867 14.2707 31.1768C14.4235 31.2669 14.6052 31.2946 14.778 31.2543C14.9508 31.2139 15.1014 31.1085 15.1985 30.96C15.2956 30.8115 15.3318 30.6313 15.2994 30.4568L15.0527 29.2693C16.8298 30.4192 19.8403 32.5893 21.0111 34.7301C20.0836 34.9347 19.2401 35.416 18.5921 36.1103C17.944 36.8047 17.522 37.6793 17.3817 38.6187H7.82324V35.5622ZM21.9979 42.6244C21.3423 42.6244 20.7014 42.4301 20.1562 42.0659C19.611 41.7017 19.186 41.1841 18.9349 40.5785C18.6838 39.9729 18.6179 39.3064 18.7455 38.6633C18.8731 38.0202 19.1885 37.4294 19.6518 36.9655C20.1151 36.5016 20.7055 36.1855 21.3485 36.0571C21.9914 35.9287 22.658 35.9937 23.2639 36.244C23.8699 36.4944 24.388 36.9187 24.7529 37.4634C25.1177 38.0082 25.3129 38.6488 25.3137 39.3045C25.3137 40.1842 24.9645 41.028 24.3428 41.6505C23.7211 42.273 22.8777 42.6233 21.9979 42.6244ZM37.5524 38.6187V15.0528C37.5524 14.8709 37.4802 14.6965 37.3516 14.5679C37.223 14.4393 37.0485 14.3671 36.8667 14.3671H7.13751C7.0471 14.3665 6.95748 14.3839 6.8738 14.4181C6.79012 14.4523 6.71403 14.5027 6.64991 14.5664C6.58579 14.6302 6.53491 14.706 6.50019 14.7894C6.46546 14.8729 6.44759 14.9624 6.44759 15.0528V38.6187H3.44122V11.6032H40.5588V38.6187H37.5524Z" fill="#0AAF60"/>
<path d="M18.565 5.7995H17.1894V7.17515H18.565V5.7995Z" fill="#212E55"/>
<path d="M22.6878 5.7995H21.3122V7.17515H22.6878V5.7995Z" fill="#212E55"/>
<path d="M26.8148 5.7995H25.4391V7.17515H26.8148V5.7995Z" fill="#212E55"/>
</g>
<defs>
<clipPath id="clip0_1_223">
<rect width="44" height="44" fill="white"/>
</clipPath>
</defs>
</svg>
