<svg width="44" height="39" viewBox="0 0 44 39" fill="none" xmlns="http://www.w3.org/2000/svg">
<g clip-path="url(#clip0_1_280)">
<path d="M42.6494 18.9548H29.3696C30.6498 16.7676 31.3267 14.2781 31.3306 11.7419V4.16417C31.3316 4.06766 31.312 3.97206 31.273 3.88381C31.2341 3.79555 31.1767 3.7167 31.1048 3.65256C31.0338 3.58841 30.9504 3.53965 30.8597 3.50935C30.7691 3.47904 30.6731 3.46783 30.578 3.47643C25.1966 4.00062 22.6711 0.419333 22.5791 0.280946C22.5123 0.193938 22.4265 0.123473 22.3283 0.0749855C22.23 0.0264977 22.122 0.00128174 22.0125 0.00128174C21.9031 0.00128174 21.795 0.0264977 21.6968 0.0749855C21.5986 0.123473 21.5128 0.193938 21.446 0.280946C21.4083 0.318688 18.8159 4.00482 13.422 3.47643C13.3269 3.46783 13.2309 3.47904 13.1403 3.50935C13.0496 3.53965 12.9662 3.58841 12.8952 3.65256C12.8233 3.7167 12.7659 3.79555 12.727 3.88381C12.688 3.97206 12.6684 4.06766 12.6694 4.16417V11.7419C12.6746 14.2785 13.3529 16.768 14.6346 18.9548H1.3422C0.986228 18.9548 0.644834 19.0966 0.393122 19.3491C0.14141 19.6015 0 19.9439 0 20.3009L0 37.6539C0 38.0109 0.14141 38.3533 0.393122 38.6057C0.644834 38.8582 0.986228 39 1.3422 39H19.0877C19.4441 39 19.7859 38.8583 20.0383 38.606C20.2906 38.3536 20.433 38.0113 20.4341 37.6539V24.4274C20.9287 24.6995 21.4536 24.912 21.9979 25.0606C22.5421 24.9135 23.067 24.7023 23.5617 24.4316V37.6539C23.5617 38.0109 23.7031 38.3533 23.9548 38.6057C24.2066 38.8582 24.5479 39 24.9039 39H42.6494C43.0054 39 43.3468 38.8582 43.5985 38.6057C43.8502 38.3533 43.9916 38.0109 43.9916 37.6539V20.3009C43.9916 19.9439 43.8502 19.6015 43.5985 19.3491C43.3468 19.0966 43.0054 18.9548 42.6494 18.9548ZM35.7084 20.3345V23.1735L34.0819 22.3558C33.9853 22.3095 33.8796 22.2851 33.7725 22.2845C33.6667 22.2852 33.5625 22.3095 33.4673 22.3558L31.8365 23.1735V20.3345H35.7084ZM12.1425 20.3345V23.1735L10.516 22.3558C10.4194 22.3095 10.3137 22.2851 10.2066 22.2845C10.1008 22.2852 9.99655 22.3095 9.90136 22.3558L8.27065 23.1735V20.3345H12.1425ZM8.27901 37.6203V34.7813L9.90972 35.62C10.0052 35.6676 10.1104 35.6924 10.217 35.6924C10.3237 35.6924 10.4289 35.6676 10.5244 35.62L12.1509 34.7813V37.6203H8.27901ZM19.0877 37.6203H13.5266V33.6658C13.526 33.5483 13.4958 33.4328 13.4388 33.3302C13.3818 33.2275 13.2998 33.141 13.2004 33.0787C13.1009 33.0165 12.987 32.9811 12.8698 32.9759C12.7526 32.9708 12.636 32.9961 12.5314 33.0493L10.215 34.2109L7.89851 33.0493C7.7939 32.9961 7.67736 32.9708 7.56016 32.9759C7.44296 32.9811 7.32906 33.0165 7.2295 33.0787C7.13014 33.141 7.04813 33.2275 6.9911 33.3302C6.93408 33.4328 6.90389 33.5483 6.90335 33.6658V37.6413H1.37565L1.3422 20.3219H6.90335V24.2764C6.90289 24.3941 6.93257 24.51 6.98954 24.6129C7.04651 24.7159 7.12887 24.8024 7.22874 24.8643C7.3286 24.9261 7.44263 24.9612 7.5599 24.9663C7.67717 24.9713 7.79376 24.946 7.89851 24.8929L10.215 23.7313L12.544 24.9055C12.6487 24.9586 12.7653 24.9838 12.8826 24.9788C12.9998 24.9738 13.1139 24.9387 13.2137 24.8768C13.3136 24.815 13.3959 24.7284 13.4529 24.6255C13.5099 24.5226 13.5396 24.4067 13.5391 24.289V20.3345H15.5545C16.5246 21.6285 17.7099 22.745 19.0584 23.6348L19.0877 37.6203ZM22.0146 23.6306C19.6582 22.6683 17.6413 21.0232 16.2217 18.9055C14.8021 16.7878 14.0443 14.2937 14.045 11.7419V4.90224C15.5178 4.98354 16.9907 4.74373 18.3622 4.19932C19.7336 3.65491 20.9712 2.81884 21.9895 1.74869C23.0065 2.82066 24.2439 3.65794 25.6157 4.20249C26.9875 4.74703 28.461 4.9858 29.934 4.90224V11.7419C29.9387 14.2901 29.1862 16.7819 27.7727 18.8994C26.3592 21.0169 24.3488 22.664 21.9979 23.6306H22.0146ZM31.8449 37.6203V34.7813L33.4756 35.62C33.5711 35.6676 33.6763 35.6924 33.7829 35.6924C33.8896 35.6924 33.9948 35.6676 34.0903 35.62L35.7168 34.7813V37.6203H31.8449ZM37.0925 37.6203V33.6658C37.0919 33.5483 37.0617 33.4328 37.0047 33.3302C36.9477 33.2275 36.8657 33.141 36.7663 33.0787C36.6668 33.0165 36.5529 32.9811 36.4357 32.9759C36.3185 32.9708 36.2019 32.9961 36.0973 33.0493L33.7809 34.2109L31.4644 33.0493C31.3598 32.9961 31.2433 32.9708 31.1261 32.9759C31.0089 32.9811 30.895 33.0165 30.7954 33.0787C30.696 33.141 30.614 33.2275 30.557 33.3302C30.5 33.4328 30.4698 33.5483 30.4693 33.6658V37.6413H24.9374V23.6348C26.2836 22.7451 27.4662 21.6285 28.433 20.3345H30.4567V24.2932C30.4562 24.4109 30.4859 24.5268 30.5429 24.6297C30.5999 24.7326 30.6822 24.8192 30.7821 24.881C30.882 24.9429 30.996 24.978 31.1133 24.983C31.2305 24.988 31.3471 24.9628 31.4519 24.9097L33.7683 23.748L36.0848 24.9097C36.1894 24.9629 36.3059 24.9882 36.4231 24.9831C36.5403 24.9779 36.6542 24.9425 36.7538 24.8803C36.8531 24.818 36.9351 24.7315 36.9922 24.6288C37.0492 24.5262 37.0794 24.4107 37.0799 24.2932V20.3135H42.6118L42.6452 37.6329L37.0925 37.6203Z" fill="#0AAF60"/>
<path d="M26.9193 17.0929V10.9494C26.9193 10.7658 26.8466 10.5898 26.7173 10.4601C26.5879 10.3303 26.4124 10.2574 26.2294 10.2574H25.9493V7.74129C25.9482 7.0821 25.6866 6.45022 25.2218 5.9841C24.757 5.51798 24.127 5.25563 23.4697 5.25452H20.5428C19.8868 5.26105 19.2595 5.52502 18.7953 5.98985C18.331 6.45469 18.0667 7.08341 18.0591 7.74129V10.2574H17.7706C17.5876 10.2574 17.4121 10.3303 17.2828 10.4601C17.1534 10.5898 17.0807 10.7658 17.0807 10.9494V17.0929C17.0818 17.4585 17.2271 17.8088 17.4848 18.0673C17.7426 18.3258 18.0918 18.4715 18.4563 18.4726H25.5646C25.9254 18.466 26.2694 18.3179 26.5226 18.06C26.7759 17.8021 26.9183 17.4549 26.9193 17.0929ZM19.4222 7.74129C19.4233 7.44729 19.5406 7.1657 19.7482 6.9582C19.9559 6.7507 20.2371 6.63419 20.5303 6.63419H23.4572C23.7503 6.63419 24.0316 6.7507 24.2392 6.9582C24.4469 7.1657 24.5641 7.44729 24.5652 7.74129V10.2574H19.4222V7.74129ZM18.4563 17.0929V11.6413H25.5646V17.0929H18.4563Z" fill="#212E55"/>
</g>
<defs>
<clipPath id="clip0_1_280">
<rect width="44" height="39" fill="white"/>
</clipPath>
</defs>
</svg>
