<svg width="139" height="43" viewBox="0 0 139 43" fill="none" xmlns="http://www.w3.org/2000/svg">
<path d="M1.71671 36.8575C1.71671 36.1391 1.86676 35.5127 2.16687 34.9782C2.47531 34.4351 2.87545 34.0101 3.3673 33.7035C3.85914 33.3969 4.39266 33.2435 4.96786 33.2435C5.38468 33.2435 5.76398 33.3005 6.10577 33.4144C6.45589 33.5283 6.77267 33.6904 7.05611 33.9006C7.33954 34.1021 7.58129 34.3387 7.78136 34.6103V33.1384C7.41457 32.7967 7.01443 32.5427 6.58094 32.3762C6.14745 32.2097 5.60976 32.1265 4.96786 32.1265C4.35931 32.1265 3.78828 32.2448 3.25476 32.4813C2.72957 32.7091 2.2669 33.0377 1.86676 33.467C1.46662 33.8875 1.15401 34.3869 0.928929 34.9651C0.703849 35.5433 0.591309 36.1741 0.591309 36.8575C0.591309 37.5408 0.703849 38.1716 0.928929 38.7499C1.15401 39.3281 1.46662 39.8319 1.86676 40.2612C2.2669 40.6817 2.72957 41.0102 3.25476 41.2468C3.78828 41.4746 4.35931 41.5885 4.96786 41.5885C5.60976 41.5885 6.14745 41.5052 6.58094 41.3388C7.01443 41.1723 7.41457 40.9182 7.78136 40.5765V39.1047C7.58129 39.3763 7.33954 39.6172 7.05611 39.8275C6.77267 40.029 6.45589 40.1867 6.10577 40.3006C5.76398 40.4145 5.38468 40.4714 4.96786 40.4714C4.39266 40.4714 3.85914 40.3181 3.3673 40.0115C2.87545 39.7048 2.47531 39.2799 2.16687 38.7367C1.86676 38.1935 1.71671 37.5671 1.71671 36.8575Z" fill="white"/>
<path d="M10.652 32.2579V41.457H11.7149V32.2579H10.652ZM15.1536 32.2579L11.3898 36.5947L15.3412 41.457H16.6541L12.6777 36.5684L16.4666 32.2579H15.1536Z" fill="white"/>
<path d="M24.95 32.2579H19.0104V38.0402C19.0104 38.3907 18.9853 38.7148 18.9353 39.0127C18.8853 39.3106 18.8103 39.5734 18.7103 39.8012C18.6102 40.0202 18.4893 40.1911 18.3476 40.3137C18.2059 40.4364 18.0392 40.4977 17.8474 40.4977V41.457C18.3226 41.457 18.7186 41.3125 19.0354 41.0234C19.3605 40.7342 19.6022 40.3488 19.7606 39.8669C19.9273 39.385 20.0107 38.8638 20.0107 38.3031V33.3093H23.8871V41.457H24.95V32.2579Z" fill="white"/>
<path d="M28.7914 38.6973H33.418L33.0429 37.646H29.1665L28.7914 38.6973ZM31.0797 34.3343L32.5802 38.0402L32.6803 38.3031L33.9557 41.457H35.1436L31.0797 31.798L27.0157 41.457H28.2037L29.5041 38.2242L29.6042 37.9877L31.0797 34.3343Z" fill="white"/>
<path d="M41.5263 34.3343L43.9646 41.0628H45.09L41.5263 31.798L37.9625 41.0628H39.0879L41.5263 34.3343ZM45.0275 41.457V42.9026H45.9654V40.4057H37.0872V42.9026H38.025V41.457H45.0275Z" fill="white"/>
<path d="M48.7745 36.8575C48.7745 36.1391 48.9245 35.5127 49.2246 34.9782C49.5331 34.4351 49.9332 34.0101 50.425 33.7035C50.9169 33.3969 51.4504 33.2435 52.0256 33.2435C52.4424 33.2435 52.8217 33.3005 53.1635 33.4144C53.5136 33.5283 53.8304 33.6904 54.1138 33.9006C54.3973 34.1021 54.639 34.3387 54.8391 34.6103V33.1384C54.4723 32.7967 54.0722 32.5427 53.6387 32.3762C53.2052 32.2097 52.6675 32.1265 52.0256 32.1265C51.4171 32.1265 50.846 32.2448 50.3125 32.4813C49.7873 32.7091 49.3246 33.0377 48.9245 33.467C48.5244 33.8875 48.2118 34.3869 47.9867 34.9651C47.7616 35.5433 47.6491 36.1741 47.6491 36.8575C47.6491 37.5408 47.7616 38.1716 47.9867 38.7499C48.2118 39.3281 48.5244 39.8319 48.9245 40.2612C49.3246 40.6817 49.7873 41.0102 50.3125 41.2468C50.846 41.4746 51.4171 41.5885 52.0256 41.5885C52.6675 41.5885 53.2052 41.5052 53.6387 41.3388C54.0722 41.1723 54.4723 40.9182 54.8391 40.5765V39.1047C54.639 39.3763 54.3973 39.6172 54.1138 39.8275C53.8304 40.029 53.5136 40.1867 53.1635 40.3006C52.8217 40.4145 52.4424 40.4714 52.0256 40.4714C51.4504 40.4714 50.9169 40.3181 50.425 40.0115C49.9332 39.7048 49.5331 39.2799 49.2246 38.7367C48.9245 38.1935 48.7745 37.5671 48.7745 36.8575Z" fill="white"/>
<path d="M57.7098 32.2579V41.457H58.7726V32.2579H57.7098ZM62.2114 32.2579L58.4475 36.5947L62.3989 41.457H63.7119L59.7355 36.5684L63.5243 32.2579H62.2114Z" fill="white"/>
<path d="M73.4082 33.5064L73.4707 31.798L65.843 40.2086L65.7805 41.917L73.4082 33.5064ZM66.8434 32.2579H65.7805V41.917L66.8434 40.4714V32.2579ZM73.4707 31.798L72.4079 33.2435V41.457H73.4707V31.798Z" fill="white"/>
<path d="M77.0644 41.457H81.4785V40.4057H77.0644V41.457ZM77.0644 33.3093H81.4785V32.2579H77.0644V33.3093ZM77.0644 36.9889H81.2284V35.9376H77.0644V36.9889ZM76.4767 32.2579V41.457H77.5396V32.2579H76.4767Z" fill="white"/>
<path d="M95.1659 32.2579H93.978L91.3271 38.3819L91.9898 38.4345L89.4139 32.2579H88.1009L90.9895 38.7367L89.8641 41.457H91.052L95.1659 32.2579Z" fill="white"/>
<path d="M97.6141 36.8575C97.6141 36.1391 97.7641 35.5127 98.0642 34.9782C98.3727 34.4351 98.7728 34.0101 99.2647 33.7035C99.7565 33.3969 100.29 33.2435 100.865 33.2435C101.282 33.2435 101.661 33.3005 102.003 33.4144C102.353 33.5283 102.67 33.6904 102.953 33.9006C103.237 34.1021 103.479 34.3387 103.679 34.6103V33.1384C103.312 32.7967 102.912 32.5427 102.478 32.3762C102.045 32.2097 101.507 32.1265 100.865 32.1265C100.257 32.1265 99.6857 32.2448 99.1521 32.4813C98.6269 32.7091 98.1643 33.0377 97.7641 33.467C97.364 33.8875 97.0514 34.3869 96.8263 34.9651C96.6012 35.5433 96.4887 36.1741 96.4887 36.8575C96.4887 37.5408 96.6012 38.1716 96.8263 38.7499C97.0514 39.3281 97.364 39.8319 97.7641 40.2612C98.1643 40.6817 98.6269 41.0102 99.1521 41.2468C99.6857 41.4746 100.257 41.5885 100.865 41.5885C101.507 41.5885 102.045 41.5052 102.478 41.3388C102.912 41.1723 103.312 40.9182 103.679 40.5765V39.1047C103.479 39.3763 103.237 39.6172 102.953 39.8275C102.67 40.029 102.353 40.1867 102.003 40.3006C101.661 40.4145 101.282 40.4714 100.865 40.4714C100.29 40.4714 99.7565 40.3181 99.2647 40.0115C98.7728 39.7048 98.3727 39.2799 98.0642 38.7367C97.7641 38.1935 97.6141 37.5671 97.6141 36.8575Z" fill="white"/>
<path d="M112.777 32.2579H106.837V38.0402C106.837 38.3907 106.812 38.7148 106.762 39.0127C106.712 39.3106 106.637 39.5734 106.537 39.8012C106.437 40.0202 106.316 40.1911 106.174 40.3137C106.033 40.4364 105.866 40.4977 105.674 40.4977V41.457C106.149 41.457 106.545 41.3125 106.862 41.0234C107.187 40.7342 107.429 40.3488 107.587 39.8669C107.754 39.385 107.837 38.8638 107.837 38.3031V33.3093H111.714V41.457H112.777V32.2579Z" fill="white"/>
<path d="M121.845 32.2579H120.657L118.006 38.3819L118.669 38.4345L116.093 32.2579H114.78L117.668 38.7367L116.543 41.457H117.731L121.845 32.2579Z" fill="white"/>
<path d="M123.851 32.2579V41.457H124.914V33.3093H128.165V32.2579H123.851Z" fill="white"/>
<path d="M137.913 33.5064L137.976 31.798L130.348 40.2086L130.285 41.917L137.913 33.5064ZM131.348 32.2579H130.285V41.917L131.348 40.4714V32.2579ZM137.976 31.798L136.913 33.2435V41.457H137.976V31.798Z" fill="white"/>
<path d="M0.900879 2.11828V24.7314H7.23131V2.11828H0.900879ZM4.94713 7.19007H9.35233C10.353 7.19007 11.1253 7.40543 11.6691 7.83616C12.213 8.26688 12.4849 8.88067 12.4849 9.67751C12.4849 10.4959 12.213 11.1204 11.6691 11.5512C11.1253 11.9819 10.353 12.1973 9.35233 12.1973H4.94713V17.2367H9.35233C11.4407 17.2367 13.1593 16.9352 14.508 16.3322C15.8786 15.7292 16.8901 14.857 17.5427 13.7156C18.2171 12.5741 18.5543 11.2281 18.5543 9.67751C18.5543 8.10536 18.2171 6.75935 17.5427 5.63946C16.8901 4.51958 15.8786 3.65813 14.508 3.05511C13.1593 2.43056 11.4407 2.11828 9.35233 2.11828H4.94713V7.19007Z" fill="white"/>
<path d="M24.5431 2.11828V24.7314H31.0041V2.11828H24.5431Z" fill="white"/>
<path d="M38.3068 2.11828V24.7314H53.8718V19.4011H44.6372V2.11828H38.3068Z" fill="white"/>
<path d="M58.8899 2.11828V24.7314H74.4549V19.4011H65.2203V2.11828H58.8899Z" fill="white"/>
<path d="M84.4745 21.081H96.548L96.3848 16.4614H84.6702L84.4745 21.081ZM90.4459 11.3896L93.4806 18.1736L93.1217 19.7888L95.7322 24.7314H102.911L90.4459 0.599976L78.0135 24.7314H85.1923L87.8355 19.5627L87.4439 18.1736L90.4459 11.3896Z" fill="white"/>
<path d="M114.502 14.4263L109.51 2.11828H102.07L114.502 26.2497L126.968 2.11828H119.528L114.502 14.4263Z" fill="white"/>
<path d="M131.824 2.11828V24.7314H138.285V2.11828H131.824Z" fill="white"/>
</svg>
