<svg width="56" height="61" viewBox="0 0 56 61" fill="none" xmlns="http://www.w3.org/2000/svg">
<g clip-path="url(#clip0_201_414)">
<path d="M23.7935 6L36.4806 13.3209V24.8033L33.3468 26.6107V16.943L25.3645 21.551V31.1205L23.8017 32.023L22.2307 31.1182V21.551L14.2537 16.946V26.8116L11.1199 25.0035V13.3216L23.7935 6ZM23.7935 18.8337L31.7795 14.2249L23.7935 9.6184L15.8165 14.2264L23.7935 18.8337Z" fill="#65BE28"/>
<path d="M23.5653 34.8438V33.0298L25.1363 32.125L34.9133 38.0894L42.8903 33.4807L34.8527 28.8674L37.988 27.0571L47.5914 32.5759V47.2214L34.9133 54.5482L23.8017 48.9327V45.3113L33.3468 50.0213V40.8082L23.5653 34.8438ZM36.4806 50.0176L44.4576 45.4103V36.1935L36.4806 40.8068V50.0176Z" fill="#65BE28"/>
<path d="M14.2477 40.8082V50.0213L23.792 45.3113V48.9327L12.6789 54.5475L5.72205e-06 47.2214V32.5759L9.60342 27.0571L12.7387 28.8712L4.70184 33.4844L12.6789 38.0894L22.4551 32.125L24.0261 33.0298V34.8438L14.2477 40.8082ZM11.1108 40.8082L3.13381 36.195V45.4103L11.1108 50.0176V40.8082Z" fill="#65BE28"/>
<path d="M1.64958 18.8723L23.6618 31.2982H23.8511L45.9374 18.8723L47.5832 19.8396V21.6998L25.2149 34.4308V60.1681L23.7875 60.9642V60.9999L23.7568 60.9813L23.7246 60.9999V60.9627L22.3721 60.1681V34.4308L0.00375366 21.6998V19.8396L1.64958 18.8723Z" fill="#65BE28"/>
</g>
<path d="M47.6667 9V5H49C49.3536 5 49.6928 5.14048 49.9428 5.39052C50.1929 5.64057 50.3333 5.97971 50.3333 6.33333C50.3333 6.68696 50.1929 7.02609 49.9428 7.27614C49.6928 7.52619 49.3536 7.66667 49 7.66667M49 7.66667H47.6667M49 7.66667L50.3333 9M43 7C43 7.78793 43.1552 8.56815 43.4567 9.2961C43.7583 10.0241 44.2002 10.6855 44.7574 11.2426C45.3145 11.7998 45.9759 12.2417 46.7039 12.5433C47.4319 12.8448 48.2121 13 49 13C49.7879 13 50.5681 12.8448 51.2961 12.5433C52.0241 12.2417 52.6855 11.7998 53.2426 11.2426C53.7998 10.6855 54.2417 10.0241 54.5433 9.2961C54.8448 8.56815 55 7.78793 55 7C55 6.21207 54.8448 5.43185 54.5433 4.7039C54.2417 3.97595 53.7998 3.31451 53.2426 2.75736C52.6855 2.20021 52.0241 1.75825 51.2961 1.45672C50.5681 1.15519 49.7879 1 49 1C48.2121 1 47.4319 1.15519 46.7039 1.45672C45.9759 1.75825 45.3145 2.20021 44.7574 2.75736C44.2002 3.31451 43.7583 3.97595 43.4567 4.7039C43.1552 5.43185 43 6.21207 43 7Z" stroke="#65BE28" stroke-width="1.5" stroke-linecap="round" stroke-linejoin="round"/>
<defs>
<clipPath id="clip0_201_414">
<rect width="47.5914" height="55" fill="white" transform="matrix(-1 0 0 1 47.5914 6)"/>
</clipPath>
</defs>
</svg>
