<svg width="18" height="14" viewBox="0 0 18 14" fill="none" xmlns="http://www.w3.org/2000/svg">
<path d="M2.84375 0C1.28103 0 0 1.28103 0 2.84375V11.1562C0 12.719 1.28103 14 2.84375 14H14.6562C16.219 14 17.5 12.719 17.5 11.1562V2.84375C17.5 1.28103 16.219 0 14.6562 0H2.84375ZM2.84375 1.3125H14.6562C15.5094 1.3125 16.1875 1.9906 16.1875 2.84375V3.32739L8.75 7.34778L1.3125 3.32739V2.84375C1.3125 1.9906 1.9906 1.3125 2.84375 1.3125ZM1.3125 4.81934L8.43811 8.67139C8.53392 8.72313 8.64111 8.75023 8.75 8.75023C8.85889 8.75023 8.96608 8.72313 9.06189 8.67139L16.1875 4.81934V11.1562C16.1875 12.0094 15.5094 12.6875 14.6562 12.6875H2.84375C1.9906 12.6875 1.3125 12.0094 1.3125 11.1562V4.81934Z" fill="#0AAF60"/>
</svg>
