<svg width="40" height="35" viewBox="0 0 40 35" fill="none" xmlns="http://www.w3.org/2000/svg">
<path opacity="0.3" d="M12.5 0C8.85375 0 5.65552 3.42178 5.65552 7.32178C5.65552 9.63785 6.22436 11.7486 7.24487 13.4143L3.49976 15.2649C1.34163 16.3299 0 18.4879 0 20.8948V25.7434C0 26.7122 0.787842 27.5 1.75659 27.5H6.25366C6.25306 27.5376 6.25 27.5746 6.25 27.6123V33.125C6.25 34.1587 7.09125 35 8.125 35H31.875C32.9087 35 33.75 34.1587 33.75 33.125V27.6123C33.75 27.5746 33.7469 27.5376 33.7463 27.5H38.2434C39.2122 27.5 40 26.7122 40 25.7434V20.8948C40 18.4879 38.6584 16.3293 36.5002 15.2637L32.7466 13.4094C33.6842 11.8914 34.3457 9.86478 34.3457 7.32178C34.3451 3.42115 31.1462 0 27.5 0C24.7761 0 22.3122 1.91315 21.2366 4.50562C20.8315 4.42573 20.4194 4.375 20 4.375C19.5835 4.375 19.1744 4.42559 18.772 4.50439C17.695 1.91174 15.2249 0 12.5 0ZM12.5 1.25C14.638 1.25 16.63 2.79621 17.5525 4.86572C14.6771 6.02011 12.5 9.09128 12.5 12.5C12.5 15.2186 13.2135 17.5504 14.3091 19.3347L10.05 21.4636C8.12103 22.4284 6.79663 24.1945 6.38672 26.25H1.75659C1.47722 26.25 1.25 26.0228 1.25 25.7434V20.8948C1.25 18.9667 2.32398 17.238 4.05273 16.3843L7.97852 14.4458C8.4703 15.0361 9.03208 15.5438 9.65698 15.9534C9.94573 16.1434 10.3343 16.0633 10.5237 15.7739C10.7131 15.4852 10.6318 15.0978 10.343 14.9084C8.68114 13.8191 6.90552 11.2531 6.90552 7.32056C6.90489 4.14368 9.57187 1.25 12.5 1.25ZM27.5 1.25C30.4281 1.25 33.0945 4.14428 33.0945 7.32178C33.0945 11.4855 31.1731 14.0605 29.375 15.0818C29.075 15.2524 28.9694 15.6326 29.1394 15.9326C29.2544 16.1357 29.4657 16.25 29.6838 16.25C29.7882 16.25 29.8952 16.2232 29.9927 16.1682C30.6776 15.779 31.3762 15.2006 32.0093 14.4397L35.9473 16.3843C37.6766 17.238 38.75 18.9667 38.75 20.8948V25.7434C38.75 26.0222 38.5228 26.25 38.2434 26.25H33.6133C33.2034 24.1945 31.8785 22.4284 29.95 21.4636L25.6909 19.3347C26.7865 17.5504 27.5 15.2186 27.5 12.5C27.5 9.09128 25.3229 6.02011 22.4475 4.86572C23.37 2.79607 25.3618 1.25 27.5 1.25ZM20 5.625C23.2706 5.625 26.25 8.90187 26.25 12.5C26.25 18.6169 22.62 21.875 20 21.875C17.38 21.875 13.75 18.6169 13.75 12.5C13.75 8.90187 16.7294 5.625 20 5.625ZM15.0366 20.3687C16.4404 22.1187 18.2484 23.125 20 23.125C21.7516 23.125 23.5596 22.1187 24.9634 20.3687L29.3909 22.5818C31.309 23.5412 32.5 25.4679 32.5 27.6123V33.125C32.5 33.4694 32.2194 33.75 31.875 33.75H8.125C7.78062 33.75 7.5 33.4694 7.5 33.125V27.6123C7.5 25.4686 8.6916 23.5412 10.6104 22.5818L15.0366 20.3687ZM10.625 30C10.28 30 10 30.28 10 30.625V31.875C10 32.22 10.28 32.5 10.625 32.5C10.97 32.5 11.25 32.22 11.25 31.875V30.625C11.25 30.28 10.97 30 10.625 30ZM13.75 30C13.405 30 13.125 30.28 13.125 30.625V31.875C13.125 32.22 13.405 32.5 13.75 32.5C14.095 32.5 14.375 32.22 14.375 31.875V30.625C14.375 30.28 14.095 30 13.75 30ZM16.875 30C16.53 30 16.25 30.28 16.25 30.625V31.875C16.25 32.22 16.53 32.5 16.875 32.5C17.22 32.5 17.5 32.22 17.5 31.875V30.625C17.5 30.28 17.22 30 16.875 30ZM20 30C19.655 30 19.375 30.28 19.375 30.625V31.875C19.375 32.22 19.655 32.5 20 32.5C20.345 32.5 20.625 32.22 20.625 31.875V30.625C20.625 30.28 20.345 30 20 30ZM23.125 30C22.78 30 22.5 30.28 22.5 30.625V31.875C22.5 32.22 22.78 32.5 23.125 32.5C23.47 32.5 23.75 32.22 23.75 31.875V30.625C23.75 30.28 23.47 30 23.125 30ZM26.25 30C25.905 30 25.625 30.28 25.625 30.625V31.875C25.625 32.22 25.905 32.5 26.25 32.5C26.595 32.5 26.875 32.22 26.875 31.875V30.625C26.875 30.28 26.595 30 26.25 30ZM29.375 30C29.03 30 28.75 30.28 28.75 30.625V31.875C28.75 32.22 29.03 32.5 29.375 32.5C29.72 32.5 30 32.22 30 31.875V30.625C30 30.28 29.72 30 29.375 30Z" fill="white"/>
<path d="M10.625 30C10.28 30 10 30.28 10 30.625V31.875C10 32.22 10.28 32.5 10.625 32.5C10.97 32.5 11.25 32.22 11.25 31.875V30.625C11.25 30.28 10.97 30 10.625 30ZM13.75 30C13.405 30 13.125 30.28 13.125 30.625V31.875C13.125 32.22 13.405 32.5 13.75 32.5C14.095 32.5 14.375 32.22 14.375 31.875V30.625C14.375 30.28 14.095 30 13.75 30ZM16.875 30C16.53 30 16.25 30.28 16.25 30.625V31.875C16.25 32.22 16.53 32.5 16.875 32.5C17.22 32.5 17.5 32.22 17.5 31.875V30.625C17.5 30.28 17.22 30 16.875 30ZM20 30C19.655 30 19.375 30.28 19.375 30.625V31.875C19.375 32.22 19.655 32.5 20 32.5C20.345 32.5 20.625 32.22 20.625 31.875V30.625C20.625 30.28 20.345 30 20 30ZM23.125 30C22.78 30 22.5 30.28 22.5 30.625V31.875C22.5 32.22 22.78 32.5 23.125 32.5C23.47 32.5 23.75 32.22 23.75 31.875V30.625C23.75 30.28 23.47 30 23.125 30ZM26.25 30C25.905 30 25.625 30.28 25.625 30.625V31.875C25.625 32.22 25.905 32.5 26.25 32.5C26.595 32.5 26.875 32.22 26.875 31.875V30.625C26.875 30.28 26.595 30 26.25 30ZM29.375 30C29.03 30 28.75 30.28 28.75 30.625V31.875C28.75 32.22 29.03 32.5 29.375 32.5C29.72 32.5 30 32.22 30 31.875V30.625C30 30.28 29.72 30 29.375 30Z" fill="#96D469"/>
</svg>
