<svg width="44" height="44" viewBox="0 0 44 44" fill="none" xmlns="http://www.w3.org/2000/svg">
<path d="M9.90003 1.16107V8.55552H11.2445V2.50552H32.7556V11.9166H42.1667V41.4944H30.0667V42.8388H43.5111V10.9661L33.7062 1.16107H9.90003ZM34.1 3.45608L41.2161 10.5722H34.1V3.45608ZM13.2611 10.5722C10.7745 10.5722 8.48952 11.8338 6.80807 13.0536C5.12663 14.2735 4.02203 15.5009 4.02203 15.5009L3.17387 16.4436L4.43035 16.6156C4.43035 16.6156 4.76874 16.6643 5.13277 16.932C5.4968 17.1997 5.8667 17.6202 5.8667 18.6388V23.2433V23.3444H5.87326C5.89013 23.6681 5.97829 23.9213 6.05182 24.1716C6.09247 24.3099 6.13034 24.4371 6.15554 24.53C6.18075 24.6229 6.1818 24.7194 6.1818 24.6048C6.1818 25.2444 6.66084 25.6839 7.23872 25.8692C7.28943 27.9922 8.3213 29.8733 9.90003 31.0723V32.9223C9.518 33.0316 7.61161 33.587 5.47151 34.5976C4.28979 35.1556 3.09693 35.8289 2.15897 36.6365C1.22102 37.4442 0.488922 38.4295 0.488922 39.6117V42.8388H27.3778V39.6117C27.3778 38.4295 26.6457 37.4442 25.7078 36.6365C24.7698 35.8289 23.5769 35.1556 22.3952 34.5976C20.2551 33.587 18.3487 33.0316 17.9667 32.9223V31.0723C19.5454 29.8733 20.5773 27.9922 20.628 25.8692C21.2059 25.6839 21.6849 25.2444 21.6849 24.6048C21.6849 24.7194 21.686 24.6229 21.7112 24.53C21.7364 24.4371 21.7743 24.3099 21.8149 24.1716C21.8796 23.9514 21.956 23.7299 21.9856 23.4599H21.9895C21.9895 23.4599 22.6723 19.6873 22.6723 17.7986C22.6723 15.9023 21.7536 14.5312 20.6385 13.7193C19.6382 12.9909 18.5392 12.7031 17.6266 12.6427C17.4999 12.4143 17.415 12.1617 16.8967 11.7341C16.1752 11.139 14.9921 10.5722 13.2611 10.5722ZM13.2611 11.9166C14.7077 11.9166 15.5411 12.3582 16.0419 12.7713C16.5428 13.1845 16.6761 13.5237 16.6761 13.5237L16.8494 13.9333H17.2945C17.9253 13.9333 19.0063 14.1944 19.8468 14.8064C20.6874 15.4184 21.3278 16.3156 21.3278 17.7986C21.3278 18.8345 21.0774 20.5713 20.8814 21.8345C20.8075 21.8107 20.7327 21.789 20.6556 21.7741V20.4875C20.6556 18.7179 19.9255 17.5061 19.1904 16.7942C18.4552 16.0823 17.6765 15.8174 17.6765 15.8174L17.2918 15.6874L16.9978 15.9683C16.9978 15.9683 16.7086 16.2573 15.9618 16.5985C15.2151 16.9398 14.055 17.2944 12.4209 17.2944C11.4706 17.2944 10.2527 17.6236 9.18317 18.371C8.18372 19.0694 7.39492 20.2368 7.28729 21.7413C7.26128 21.7449 7.23686 21.7537 7.21114 21.7584V18.6388C7.21114 17.2455 6.57271 16.3226 5.92841 15.8489C5.83646 15.7813 5.83165 15.8216 5.74066 15.7688C6.12223 15.3788 6.47116 14.9576 7.59715 14.1407C9.15884 13.0078 11.2426 11.9166 13.2611 11.9166ZM38.8056 13.9333C38.6273 13.9333 38.4563 14.0041 38.3302 14.1302C38.2042 14.2562 38.1334 14.4272 38.1334 14.6055C38.1334 14.7838 38.2042 14.9548 38.3302 15.0808C38.4563 15.2069 38.6273 15.2777 38.8056 15.2777C38.9839 15.2777 39.1549 15.2069 39.2809 15.0808C39.407 14.9548 39.4778 14.7838 39.4778 14.6055C39.4778 14.4272 39.407 14.2562 39.2809 14.1302C39.1549 14.0041 38.9839 13.9333 38.8056 13.9333ZM38.8056 16.6222C38.6273 16.6222 38.4563 16.693 38.3302 16.8191C38.2042 16.9451 38.1334 17.1161 38.1334 17.2944C38.1334 17.4727 38.2042 17.6437 38.3302 17.7697C38.4563 17.8958 38.6273 17.9666 38.8056 17.9666C38.9839 17.9666 39.1549 17.8958 39.2809 17.7697C39.407 17.6437 39.4778 17.4727 39.4778 17.2944C39.4778 17.1161 39.407 16.9451 39.2809 16.8191C39.1549 16.693 38.9839 16.6222 38.8056 16.6222ZM17.4612 17.2327C17.6065 17.2926 17.8414 17.3581 18.2555 17.7592C18.7808 18.2679 19.3111 19.0727 19.3111 20.4875V23.674L20.3129 23.1094C20.361 23.0823 20.3899 23.0681 20.4284 23.0477C20.5513 23.0767 20.6556 23.141 20.6556 23.2433C20.6556 23.233 20.602 23.5323 20.5256 23.7921C20.4874 23.922 20.4466 24.0531 20.4127 24.1781C20.3788 24.3031 20.3405 24.3847 20.3405 24.6048C20.3405 24.6434 20.3108 24.6888 20.2249 24.6888H19.3111V25.7143C19.3111 28.367 17.3991 30.5541 14.8826 31.0027L14.6922 31.0369L14.5491 31.1682C14.3799 31.3221 14.1717 31.4111 13.9334 31.4111C13.6951 31.4111 13.4868 31.3221 13.3176 31.1682L13.1745 31.0369L12.9841 31.0027C10.4677 30.5541 8.55559 28.367 8.55559 25.7143V24.6888H7.64179C7.55596 24.6888 7.52625 24.6434 7.52625 24.6048C7.52625 24.3847 7.48794 24.3031 7.45404 24.1781C7.42013 24.0531 7.3793 23.922 7.34112 23.7921C7.26477 23.5323 7.21114 23.233 7.21114 23.2433C7.21114 23.1415 7.31627 23.0774 7.43828 23.0477C7.47722 23.0683 7.50645 23.0822 7.55513 23.1094L8.55559 23.6687V22.0262C8.55559 20.8264 9.1439 20.0385 9.95386 19.4726C10.7638 18.9066 11.8143 18.6388 12.4209 18.6388C14.2507 18.6388 15.6118 18.2372 16.5198 17.8222C17.127 17.5447 17.2465 17.4017 17.4612 17.2327ZM38.8056 19.3111C38.6273 19.3111 38.4563 19.3819 38.3302 19.508C38.2042 19.634 38.1334 19.805 38.1334 19.9833C38.1334 20.1616 38.2042 20.3326 38.3302 20.4586C38.4563 20.5847 38.6273 20.6555 38.8056 20.6555C38.9839 20.6555 39.1549 20.5847 39.2809 20.4586C39.407 20.3326 39.4778 20.1616 39.4778 19.9833C39.4778 19.805 39.407 19.634 39.2809 19.508C39.1549 19.3819 38.9839 19.3111 38.8056 19.3111ZM38.8056 22C38.6273 22 38.4563 22.0708 38.3302 22.1968C38.2042 22.3229 38.1334 22.4939 38.1334 22.6722C38.1334 22.8505 38.2042 23.0215 38.3302 23.1475C38.4563 23.2736 38.6273 23.3444 38.8056 23.3444C38.9839 23.3444 39.1549 23.2736 39.2809 23.1475C39.407 23.0215 39.4778 22.8505 39.4778 22.6722C39.4778 22.4939 39.407 22.3229 39.2809 22.1968C39.1549 22.0708 38.9839 22 38.8056 22ZM11.2445 23.3444C11.0662 23.3444 10.8952 23.4152 10.7691 23.5413C10.6431 23.6674 10.5723 23.8383 10.5723 24.0166C10.5723 24.1949 10.6431 24.3659 10.7691 24.492C10.8952 24.618 11.0662 24.6888 11.2445 24.6888C11.4228 24.6888 11.5937 24.618 11.7198 24.492C11.8459 24.3659 11.9167 24.1949 11.9167 24.0166C11.9167 23.8383 11.8459 23.6674 11.7198 23.5413C11.5937 23.4152 11.4228 23.3444 11.2445 23.3444ZM16.6223 23.3444C16.444 23.3444 16.273 23.4152 16.1469 23.5413C16.0209 23.6674 15.95 23.8383 15.95 24.0166C15.95 24.1949 16.0209 24.3659 16.1469 24.492C16.273 24.618 16.444 24.6888 16.6223 24.6888C16.8005 24.6888 16.9715 24.618 17.0976 24.492C17.2237 24.3659 17.2945 24.1949 17.2945 24.0166C17.2945 23.8383 17.2237 23.6674 17.0976 23.5413C16.9715 23.4152 16.8005 23.3444 16.6223 23.3444ZM38.8056 24.6888C38.6273 24.6888 38.4563 24.7597 38.3302 24.8857C38.2042 25.0118 38.1334 25.1828 38.1334 25.3611C38.1334 25.5394 38.2042 25.7103 38.3302 25.8364C38.4563 25.9625 38.6273 26.0333 38.8056 26.0333C38.9839 26.0333 39.1549 25.9625 39.2809 25.8364C39.407 25.7103 39.4778 25.5394 39.4778 25.3611C39.4778 25.1828 39.407 25.0118 39.2809 24.8857C39.1549 24.7597 38.9839 24.6888 38.8056 24.6888ZM38.8056 27.3777C38.6273 27.3777 38.4563 27.4486 38.3302 27.5746C38.2042 27.7007 38.1334 27.8717 38.1334 28.05C38.1334 28.2282 38.2042 28.3992 38.3302 28.5253C38.4563 28.6514 38.6273 28.7222 38.8056 28.7222C38.9839 28.7222 39.1549 28.6514 39.2809 28.5253C39.407 28.3992 39.4778 28.2282 39.4778 28.05C39.4778 27.8717 39.407 27.7007 39.2809 27.5746C39.1549 27.4486 38.9839 27.3777 38.8056 27.3777ZM38.8056 30.0666C38.6273 30.0666 38.4563 30.1374 38.3302 30.2635C38.2042 30.3896 38.1334 30.5606 38.1334 30.7388C38.1334 30.9171 38.2042 31.0881 38.3302 31.2142C38.4563 31.3402 38.6273 31.4111 38.8056 31.4111C38.9839 31.4111 39.1549 31.3402 39.2809 31.2142C39.407 31.0881 39.4778 30.9171 39.4778 30.7388C39.4778 30.5606 39.407 30.3896 39.2809 30.2635C39.1549 30.1374 38.9839 30.0666 38.8056 30.0666ZM11.2445 31.8653C11.669 32.0522 12.1163 32.1953 12.5824 32.2907C12.9576 32.5736 13.4231 32.7555 13.9334 32.7555C14.4436 32.7555 14.9091 32.5736 15.2844 32.2907C15.7504 32.1953 16.1977 32.0522 16.6223 31.8653V33.9844C16.5423 34.143 15.8576 35.4444 13.9334 35.4444C12.0091 35.4444 11.3244 34.143 11.2445 33.9844V31.8653ZM38.8056 32.7555C38.6273 32.7555 38.4563 32.8263 38.3302 32.9524C38.2042 33.0785 38.1334 33.2495 38.1334 33.4277C38.1334 33.606 38.2042 33.777 38.3302 33.9031C38.4563 34.0291 38.6273 34.1 38.8056 34.1C38.9839 34.1 39.1549 34.0291 39.2809 33.9031C39.407 33.777 39.4778 33.606 39.4778 33.4277C39.4778 33.2495 39.407 33.0785 39.2809 32.9524C39.1549 32.8263 38.9839 32.7555 38.8056 32.7555ZM9.90003 34.331V34.3547L9.97093 34.4965C9.97093 34.4965 11.1743 36.7888 13.9334 36.7888C16.6924 36.7888 17.8958 34.4965 17.8958 34.4965L17.9667 34.3547V34.331C18.6663 34.5433 20.0911 34.9969 21.8202 35.8133C22.9374 36.3409 24.0444 36.9783 24.8307 37.6554C25.2983 38.058 25.6179 38.457 25.8141 38.8436C25.6821 38.8891 25.5675 38.9747 25.4864 39.0883C25.4052 39.202 25.3614 39.3381 25.3611 39.4777C25.3611 39.656 25.432 39.827 25.558 39.9531C25.6841 40.0791 25.8551 40.15 26.0334 40.15V41.4944H1.83337V40.15C2.01165 40.15 2.18263 40.0791 2.3087 39.9531C2.43477 39.827 2.50559 39.656 2.50559 39.4777C2.50532 39.3381 2.46155 39.202 2.38038 39.0883C2.2992 38.9747 2.18465 38.8891 2.05263 38.8436C2.24881 38.457 2.56846 38.058 3.03601 37.6554C3.82231 36.9783 4.92929 36.3409 6.04657 35.8133C7.7756 34.9969 9.20048 34.5433 9.90003 34.331ZM38.8056 35.4444C38.6273 35.4444 38.4563 35.5152 38.3302 35.6413C38.2042 35.7674 38.1334 35.9383 38.1334 36.1166C38.1334 36.2949 38.2042 36.4659 38.3302 36.592C38.4563 36.718 38.6273 36.7888 38.8056 36.7888C38.9839 36.7888 39.1549 36.718 39.2809 36.592C39.407 36.4659 39.4778 36.2949 39.4778 36.1166C39.4778 35.9383 39.407 35.7674 39.2809 35.6413C39.1549 35.5152 38.9839 35.4444 38.8056 35.4444ZM38.8056 38.1333C38.6273 38.1333 38.4563 38.2041 38.3302 38.3302C38.2042 38.4562 38.1334 38.6272 38.1334 38.8055C38.1334 38.9838 38.2042 39.1548 38.3302 39.2808C38.4563 39.4069 38.6273 39.4777 38.8056 39.4777C38.9839 39.4777 39.1549 39.4069 39.2809 39.2808C39.407 39.1548 39.4778 38.9838 39.4778 38.8055C39.4778 38.6272 39.407 38.4562 39.2809 38.3302C39.1549 38.2041 38.9839 38.1333 38.8056 38.1333ZM4.52225 38.8055C4.34397 38.8055 4.17299 38.8763 4.04692 39.0024C3.92086 39.1285 3.85003 39.2995 3.85003 39.4777C3.85003 39.656 3.92086 39.827 4.04692 39.9531C4.17299 40.0791 4.34397 40.15 4.52225 40.15C4.70054 40.15 4.87152 40.0791 4.99759 39.9531C5.12365 39.827 5.19448 39.656 5.19448 39.4777C5.19448 39.2995 5.12365 39.1285 4.99759 39.0024C4.87152 38.8763 4.70054 38.8055 4.52225 38.8055ZM7.21114 38.8055C7.03286 38.8055 6.86188 38.8763 6.73581 39.0024C6.60974 39.1285 6.53892 39.2995 6.53892 39.4777C6.53892 39.656 6.60974 39.827 6.73581 39.9531C6.86188 40.0791 7.03286 40.15 7.21114 40.15C7.38943 40.15 7.56041 40.0791 7.68648 39.9531C7.81254 39.827 7.88337 39.656 7.88337 39.4777C7.88337 39.2995 7.81254 39.1285 7.68648 39.0024C7.56041 38.8763 7.38943 38.8055 7.21114 38.8055ZM9.90003 38.8055C9.72175 38.8055 9.55077 38.8763 9.4247 39.0024C9.29863 39.1285 9.22781 39.2995 9.22781 39.4777C9.22781 39.656 9.29863 39.827 9.4247 39.9531C9.55077 40.0791 9.72175 40.15 9.90003 40.15C10.0783 40.15 10.2493 40.0791 10.3754 39.9531C10.5014 39.827 10.5723 39.656 10.5723 39.4777C10.5723 39.2995 10.5014 39.1285 10.3754 39.0024C10.2493 38.8763 10.0783 38.8055 9.90003 38.8055ZM12.5889 38.8055C12.4106 38.8055 12.2397 38.8763 12.1136 39.0024C11.9875 39.1285 11.9167 39.2995 11.9167 39.4777C11.9167 39.656 11.9875 39.827 12.1136 39.9531C12.2397 40.0791 12.4106 40.15 12.5889 40.15C12.7672 40.15 12.9382 40.0791 13.0643 39.9531C13.1903 39.827 13.2611 39.656 13.2611 39.4777C13.2611 39.2995 13.1903 39.1285 13.0643 39.0024C12.9382 38.8763 12.7672 38.8055 12.5889 38.8055ZM15.2778 38.8055C15.0995 38.8055 14.9285 38.8763 14.8025 39.0024C14.6764 39.1285 14.6056 39.2995 14.6056 39.4777C14.6056 39.656 14.6764 39.827 14.8025 39.9531C14.9285 40.0791 15.0995 40.15 15.2778 40.15C15.4561 40.15 15.6271 40.0791 15.7531 39.9531C15.8792 39.827 15.95 39.656 15.95 39.4777C15.95 39.2995 15.8792 39.1285 15.7531 39.0024C15.6271 38.8763 15.4561 38.8055 15.2778 38.8055ZM17.9667 38.8055C17.7884 38.8055 17.6174 38.8763 17.4914 39.0024C17.3653 39.1285 17.2945 39.2995 17.2945 39.4777C17.2945 39.656 17.3653 39.827 17.4914 39.9531C17.6174 40.0791 17.7884 40.15 17.9667 40.15C18.145 40.15 18.316 40.0791 18.442 39.9531C18.5681 39.827 18.6389 39.656 18.6389 39.4777C18.6389 39.2995 18.5681 39.1285 18.442 39.0024C18.316 38.8763 18.145 38.8055 17.9667 38.8055ZM20.6556 38.8055C20.4773 38.8055 20.3063 38.8763 20.1803 39.0024C20.0542 39.1285 19.9834 39.2995 19.9834 39.4777C19.9834 39.656 20.0542 39.827 20.1803 39.9531C20.3063 40.0791 20.4773 40.15 20.6556 40.15C20.8339 40.15 21.0049 40.0791 21.1309 39.9531C21.257 39.827 21.3278 39.656 21.3278 39.4777C21.3278 39.2995 21.257 39.1285 21.1309 39.0024C21.0049 38.8763 20.8339 38.8055 20.6556 38.8055ZM23.3445 38.8055C23.1662 38.8055 22.9952 38.8763 22.8691 39.0024C22.7431 39.1285 22.6723 39.2995 22.6723 39.4777C22.6723 39.656 22.7431 39.827 22.8691 39.9531C22.9952 40.0791 23.1662 40.15 23.3445 40.15C23.5228 40.15 23.6937 40.0791 23.8198 39.9531C23.9459 39.827 24.0167 39.656 24.0167 39.4777C24.0167 39.2995 23.9459 39.1285 23.8198 39.0024C23.6937 38.8763 23.5228 38.8055 23.3445 38.8055Z" fill="#0AAF60"/>
<path d="M38.8056 13.9332C38.6273 13.9332 38.4563 14.0041 38.3302 14.1301C38.2042 14.2562 38.1333 14.4272 38.1333 14.6054C38.1333 14.7837 38.2042 14.9547 38.3302 15.0808C38.4563 15.2068 38.6273 15.2777 38.8056 15.2777C38.9838 15.2777 39.1548 15.2068 39.2809 15.0808C39.407 14.9547 39.4778 14.7837 39.4778 14.6054C39.4778 14.4272 39.407 14.2562 39.2809 14.1301C39.1548 14.0041 38.9838 13.9332 38.8056 13.9332ZM38.8056 16.6221C38.6273 16.6221 38.4563 16.6929 38.3302 16.819C38.2042 16.9451 38.1333 17.1161 38.1333 17.2943C38.1333 17.4726 38.2042 17.6436 38.3302 17.7697C38.4563 17.8957 38.6273 17.9666 38.8056 17.9666C38.9838 17.9666 39.1548 17.8957 39.2809 17.7697C39.407 17.6436 39.4778 17.4726 39.4778 17.2943C39.4778 17.1161 39.407 16.9451 39.2809 16.819C39.1548 16.6929 38.9838 16.6221 38.8056 16.6221ZM38.8056 19.311C38.6273 19.311 38.4563 19.3818 38.3302 19.5079C38.2042 19.634 38.1333 19.8049 38.1333 19.9832C38.1333 20.1615 38.2042 20.3325 38.3302 20.4586C38.4563 20.5846 38.6273 20.6554 38.8056 20.6554C38.9838 20.6554 39.1548 20.5846 39.2809 20.4586C39.407 20.3325 39.4778 20.1615 39.4778 19.9832C39.4778 19.8049 39.407 19.634 39.2809 19.5079C39.1548 19.3818 38.9838 19.311 38.8056 19.311ZM38.8056 21.9999C38.6273 21.9999 38.4563 22.0707 38.3302 22.1968C38.2042 22.3228 38.1333 22.4938 38.1333 22.6721C38.1333 22.8504 38.2042 23.0214 38.3302 23.1475C38.4563 23.2735 38.6273 23.3443 38.8056 23.3443C38.9838 23.3443 39.1548 23.2735 39.2809 23.1475C39.407 23.0214 39.4778 22.8504 39.4778 22.6721C39.4778 22.4938 39.407 22.3228 39.2809 22.1968C39.1548 22.0707 38.9838 21.9999 38.8056 21.9999ZM38.8056 24.6888C38.6273 24.6888 38.4563 24.7596 38.3302 24.8857C38.2042 25.0117 38.1333 25.1827 38.1333 25.361C38.1333 25.5393 38.2042 25.7103 38.3302 25.8363C38.4563 25.9624 38.6273 26.0332 38.8056 26.0332C38.9838 26.0332 39.1548 25.9624 39.2809 25.8363C39.407 25.7103 39.4778 25.5393 39.4778 25.361C39.4778 25.1827 39.407 25.0117 39.2809 24.8857C39.1548 24.7596 38.9838 24.6888 38.8056 24.6888ZM38.8056 27.3777C38.6273 27.3777 38.4563 27.4485 38.3302 27.5746C38.2042 27.7006 38.1333 27.8716 38.1333 28.0499C38.1333 28.2282 38.2042 28.3992 38.3302 28.5252C38.4563 28.6513 38.6273 28.7221 38.8056 28.7221C38.9838 28.7221 39.1548 28.6513 39.2809 28.5252C39.407 28.3992 39.4778 28.2282 39.4778 28.0499C39.4778 27.8716 39.407 27.7006 39.2809 27.5746C39.1548 27.4485 38.9838 27.3777 38.8056 27.3777ZM38.8056 30.0666C38.6273 30.0666 38.4563 30.1374 38.3302 30.2635C38.2042 30.3895 38.1333 30.5605 38.1333 30.7388C38.1333 30.9171 38.2042 31.088 38.3302 31.2141C38.4563 31.3402 38.6273 31.411 38.8056 31.411C38.9838 31.411 39.1548 31.3402 39.2809 31.2141C39.407 31.088 39.4778 30.9171 39.4778 30.7388C39.4778 30.5605 39.407 30.3895 39.2809 30.2635C39.1548 30.1374 38.9838 30.0666 38.8056 30.0666ZM38.8056 32.7554C38.6273 32.7554 38.4563 32.8263 38.3302 32.9523C38.2042 33.0784 38.1333 33.2494 38.1333 33.4277C38.1333 33.606 38.2042 33.7769 38.3302 33.903C38.4563 34.0291 38.6273 34.0999 38.8056 34.0999C38.9838 34.0999 39.1548 34.0291 39.2809 33.903C39.407 33.7769 39.4778 33.606 39.4778 33.4277C39.4778 33.2494 39.407 33.0784 39.2809 32.9523C39.1548 32.8263 38.9838 32.7554 38.8056 32.7554ZM38.8056 35.4443C38.6273 35.4443 38.4563 35.5152 38.3302 35.6412C38.2042 35.7673 38.1333 35.9383 38.1333 36.1166C38.1333 36.2948 38.2042 36.4658 38.3302 36.5919C38.4563 36.718 38.6273 36.7888 38.8056 36.7888C38.9838 36.7888 39.1548 36.718 39.2809 36.5919C39.407 36.4658 39.4778 36.2948 39.4778 36.1166C39.4778 35.9383 39.407 35.7673 39.2809 35.6412C39.1548 35.5152 38.9838 35.4443 38.8056 35.4443ZM38.8056 38.1332C38.6273 38.1332 38.4563 38.2041 38.3302 38.3301C38.2042 38.4562 38.1333 38.6272 38.1333 38.8055C38.1333 38.9837 38.2042 39.1547 38.3302 39.2808C38.4563 39.4069 38.6273 39.4777 38.8056 39.4777C38.9838 39.4777 39.1548 39.4069 39.2809 39.2808C39.407 39.1547 39.4778 38.9837 39.4778 38.8055C39.4778 38.6272 39.407 38.4562 39.2809 38.3301C39.1548 38.2041 38.9838 38.1332 38.8056 38.1332ZM4.52223 38.8055C4.34395 38.8055 4.17297 38.8763 4.0469 39.0023C3.92083 39.1284 3.85001 39.2994 3.85001 39.4777C3.85001 39.656 3.92083 39.8269 4.0469 39.953C4.17297 40.0791 4.34395 40.1499 4.52223 40.1499C4.70052 40.1499 4.8715 40.0791 4.99756 39.953C5.12363 39.8269 5.19445 39.656 5.19445 39.4777C5.19445 39.2994 5.12363 39.1284 4.99756 39.0023C4.8715 38.8763 4.70052 38.8055 4.52223 38.8055ZM7.21112 38.8055C7.03284 38.8055 6.86185 38.8763 6.73579 39.0023C6.60972 39.1284 6.5389 39.2994 6.5389 39.4777C6.5389 39.656 6.60972 39.8269 6.73579 39.953C6.86185 40.0791 7.03284 40.1499 7.21112 40.1499C7.38941 40.1499 7.56039 40.0791 7.68645 39.953C7.81252 39.8269 7.88334 39.656 7.88334 39.4777C7.88334 39.2994 7.81252 39.1284 7.68645 39.0023C7.56039 38.8763 7.38941 38.8055 7.21112 38.8055ZM9.90001 38.8055C9.72172 38.8055 9.55074 38.8763 9.42468 39.0023C9.29861 39.1284 9.22779 39.2994 9.22779 39.4777C9.22779 39.656 9.29861 39.8269 9.42468 39.953C9.55074 40.0791 9.72172 40.1499 9.90001 40.1499C10.0783 40.1499 10.2493 40.0791 10.3753 39.953C10.5014 39.8269 10.5722 39.656 10.5722 39.4777C10.5722 39.2994 10.5014 39.1284 10.3753 39.0023C10.2493 38.8763 10.0783 38.8055 9.90001 38.8055ZM12.5889 38.8055C12.4106 38.8055 12.2396 38.8763 12.1136 39.0023C11.9875 39.1284 11.9167 39.2994 11.9167 39.4777C11.9167 39.656 11.9875 39.8269 12.1136 39.953C12.2396 40.0791 12.4106 40.1499 12.5889 40.1499C12.7672 40.1499 12.9382 40.0791 13.0642 39.953C13.1903 39.8269 13.2611 39.656 13.2611 39.4777C13.2611 39.2994 13.1903 39.1284 13.0642 39.0023C12.9382 38.8763 12.7672 38.8055 12.5889 38.8055ZM15.2778 38.8055C15.0995 38.8055 14.9285 38.8763 14.8025 39.0023C14.6764 39.1284 14.6056 39.2994 14.6056 39.4777C14.6056 39.656 14.6764 39.8269 14.8025 39.953C14.9285 40.0791 15.0995 40.1499 15.2778 40.1499C15.4561 40.1499 15.6271 40.0791 15.7531 39.953C15.8792 39.8269 15.95 39.656 15.95 39.4777C15.95 39.2994 15.8792 39.1284 15.7531 39.0023C15.6271 38.8763 15.4561 38.8055 15.2778 38.8055ZM17.9667 38.8055C17.7884 38.8055 17.6174 38.8763 17.4913 39.0023C17.3653 39.1284 17.2945 39.2994 17.2945 39.4777C17.2945 39.656 17.3653 39.8269 17.4913 39.953C17.6174 40.0791 17.7884 40.1499 17.9667 40.1499C18.145 40.1499 18.3159 40.0791 18.442 39.953C18.5681 39.8269 18.6389 39.656 18.6389 39.4777C18.6389 39.2994 18.5681 39.1284 18.442 39.0023C18.3159 38.8763 18.145 38.8055 17.9667 38.8055ZM20.6556 38.8055C20.4773 38.8055 20.3063 38.8763 20.1802 39.0023C20.0542 39.1284 19.9833 39.2994 19.9833 39.4777C19.9833 39.656 20.0542 39.8269 20.1802 39.953C20.3063 40.0791 20.4773 40.1499 20.6556 40.1499C20.8338 40.1499 21.0048 40.0791 21.1309 39.953C21.257 39.8269 21.3278 39.656 21.3278 39.4777C21.3278 39.2994 21.257 39.1284 21.1309 39.0023C21.0048 38.8763 20.8338 38.8055 20.6556 38.8055ZM23.3445 38.8055C23.1662 38.8055 22.9952 38.8763 22.8691 39.0023C22.7431 39.1284 22.6722 39.2994 22.6722 39.4777C22.6722 39.656 22.7431 39.8269 22.8691 39.953C22.9952 40.0791 23.1662 40.1499 23.3445 40.1499C23.5227 40.1499 23.6937 40.0791 23.8198 39.953C23.9459 39.8269 24.0167 39.656 24.0167 39.4777C24.0167 39.2994 23.9459 39.1284 23.8198 39.0023C23.6937 38.8763 23.5227 38.8055 23.3445 38.8055Z" fill="#212E55"/>
</svg>
