<svg width="44" height="49" viewBox="0 0 44 49" fill="none" xmlns="http://www.w3.org/2000/svg">
<g clip-path="url(#clip0_1_243)">
<path d="M43.2408 29.8712H37.1165V28.7677C37.1081 28.0602 36.8564 27.3776 36.404 26.8359C35.9516 26.2943 35.3265 25.9271 34.6352 25.7968L26.7935 23.4686V21.8249C27.5477 20.9258 28.1088 19.8794 28.4415 18.7516C28.8439 18.8903 29.2624 18.9764 29.6867 19.0077C30.1789 19.0066 30.657 18.8428 31.0476 18.5416C31.4382 18.2404 31.7196 17.8185 31.8485 17.3407L32.6123 14.4723C32.7424 13.9775 32.6982 13.4527 32.4873 12.9869C34.6028 6.05341 28.8118 0 22.0023 0C15.1928 0 9.37401 6.01616 11.5219 13.0381C11.3127 13.511 11.2702 14.0416 11.4016 14.5421L12.1376 17.336C12.2759 17.8179 12.5669 18.2411 12.9663 18.5412C13.3658 18.8412 13.8518 19.0018 14.3503 18.9984C14.7651 18.9698 15.1744 18.8868 15.5678 18.7516C15.9022 19.8801 16.4631 20.9276 17.2158 21.8295V23.4872L9.25829 25.8341C8.5897 25.9758 7.98966 26.3439 7.55832 26.8769C7.12698 27.41 6.89043 28.0757 6.88816 28.763V29.8712H0.759179C0.659483 29.8712 0.560762 29.891 0.468654 29.9294C0.376546 29.9677 0.292855 30.024 0.222358 30.0949C0.151862 30.1658 0.0959414 30.25 0.0577891 30.3427C0.0196368 30.4353 0 30.5346 0 30.6349L0 34.3601C0.00363958 34.5602 0.0852282 34.7508 0.227209 34.8911C0.369191 35.0313 0.560216 35.1098 0.759179 35.1098H2.20347V48.2363C2.20286 48.3368 2.22207 48.4364 2.26001 48.5293C2.29794 48.6222 2.35384 48.7067 2.42446 48.7777C2.49508 48.8487 2.57901 48.905 2.6714 48.9431C2.76379 48.9813 2.86278 49.0006 2.96265 49H41.0373C41.1372 49.0006 41.2362 48.9813 41.3286 48.9431C41.421 48.905 41.5049 48.8487 41.5755 48.7777C41.6462 48.7067 41.7021 48.6222 41.74 48.5293C41.7779 48.4364 41.7971 48.3368 41.7965 48.2363V35.1098H43.2408C43.3407 35.1104 43.4397 35.091 43.5321 35.0529C43.6245 35.0147 43.7084 34.9585 43.779 34.8875C43.8496 34.8164 43.9055 34.732 43.9435 34.6391C43.9814 34.5461 44.0006 34.4466 44 34.3461V30.6209C43.9976 30.4204 43.9163 30.2291 43.7741 30.0886C43.6319 29.9481 43.4401 29.87 43.2408 29.8712ZM35.5935 28.7677V29.8712H24.2984C25.6152 28.5814 26.481 26.897 26.7657 25.0704L34.2557 27.2776C34.617 27.3287 34.949 27.5059 35.1935 27.7783C35.4381 28.0507 35.5797 28.4009 35.5935 28.7677ZM16.5631 7.30134C18.4147 5.0057 21.9421 5.01967 22.0116 5.02898C22.081 5.0383 25.5806 4.98708 27.4323 7.29668C30.4412 11.0498 26.9694 21.9599 22.1967 22.7608C21.9883 22.7964 21.7746 22.7837 21.5718 22.7236C17.6324 21.9925 16.901 17.8622 16.8686 17.6946C16.4983 15.4176 14.0356 10.4631 16.5631 7.30134ZM18.7295 23.1939C20.7941 24.5629 22.8957 24.7771 25.2705 23.1939V24.7724C25.1191 25.7915 24.7481 26.765 24.1836 27.6248C23.6191 28.4846 22.8746 29.21 22.0023 29.7502C21.1246 29.2147 20.3758 28.4901 19.8099 27.6285C19.2439 26.767 18.875 25.7899 18.7295 24.7677V23.1939ZM31.1402 14.0765L30.3811 16.9449C30.3312 17.1294 30.2106 17.2865 30.0457 17.3817C29.8808 17.4769 29.6851 17.5023 29.5015 17.4524L28.8118 17.2662L29.9459 13.0102L30.6357 13.1964C30.7268 13.2202 30.8123 13.2621 30.887 13.3197C30.9618 13.3773 31.0243 13.4494 31.0708 13.5317C31.1186 13.613 31.1495 13.7032 31.1614 13.7969C31.1733 13.8906 31.1661 13.9857 31.1402 14.0765ZM22.0023 1.53198C27.4925 1.53198 32.4225 6.13722 31.2282 11.7762C31.1632 11.7478 31.0968 11.7229 31.0291 11.7017L30.0894 11.4549C30.3394 6.46783 27.0481 3.68327 22.0347 3.49701C21.8496 3.49701 17.7157 3.4551 15.4058 6.3328C14.3318 7.6692 13.855 9.38744 13.9615 11.4549L13.0357 11.7064C12.9523 11.7296 12.8736 11.7669 12.7949 11.7948C11.5729 6.13722 16.5584 1.53198 22.0023 1.53198ZM14.5401 17.4385C14.4441 17.4645 14.3439 17.4711 14.2453 17.458C14.1466 17.4449 14.0516 17.4123 13.9655 17.3621C13.8795 17.3119 13.8042 17.2451 13.7439 17.1655C13.6836 17.0859 13.6396 16.9951 13.6143 16.8983L12.8736 14.1044C12.8254 13.9088 12.855 13.702 12.9562 13.528C13.0574 13.354 13.2221 13.2267 13.4153 13.1731L14.0587 13.0009C14.1698 13.4106 15.253 17.4804 15.1928 17.2569L14.5401 17.4385ZM8.40652 28.763C8.41088 28.4175 8.53484 28.0844 8.75705 27.8209C8.97926 27.5574 9.28583 27.3801 9.62399 27.3195L17.2343 25.0751C17.5225 26.8991 18.3878 28.581 19.7016 29.8712H8.40652V28.763ZM40.2735 37.8431H37.9312C37.7395 37.8582 37.5605 37.9454 37.4299 38.0874C37.2993 38.2294 37.2268 38.4157 37.2268 38.6091C37.2268 38.8025 37.2993 38.9888 37.4299 39.1308C37.5605 39.2728 37.7395 39.36 37.9312 39.3751H40.2735V43.2027H37.9312C37.7395 43.2177 37.5605 43.305 37.4299 43.447C37.2993 43.589 37.2268 43.7753 37.2268 43.9687C37.2268 44.1621 37.2993 44.3484 37.4299 44.4904C37.5605 44.6324 37.7395 44.7196 37.9312 44.7347H40.2735V47.468H3.70331V44.7347H6.04566C6.23737 44.7196 6.41638 44.6324 6.54695 44.4904C6.67752 44.3484 6.75005 44.1621 6.75005 43.9687C6.75005 43.7753 6.67752 43.589 6.54695 43.447C6.41638 43.305 6.23737 43.2177 6.04566 43.2027H3.72646V39.3751H6.06881C6.26051 39.36 6.43952 39.2728 6.5701 39.1308C6.70067 38.9888 6.7732 38.8025 6.7732 38.6091C6.7732 38.4157 6.70067 38.2294 6.5701 38.0874C6.43952 37.9454 6.26051 37.8582 6.06881 37.8431H3.72646V35.1098H40.2735V37.8431ZM42.4724 33.5824H1.52299V31.3986H42.477L42.4724 33.5824Z" fill="#0AAF60"/>
<path d="M18.5651 40H17.1895V41.3757H18.5651V40Z" fill="#212E55"/>
<path d="M22.6878 40H21.3121V41.3757H22.6878V40Z" fill="#212E55"/>
<path d="M26.8147 40H25.4391V41.3757H26.8147V40Z" fill="#212E55"/>
</g>
<defs>
<clipPath id="clip0_1_243">
<rect width="44" height="49" fill="white"/>
</clipPath>
</defs>
</svg>
