<svg width="14" height="19" viewBox="0 0 14 19" fill="none" xmlns="http://www.w3.org/2000/svg">
<path d="M7 0C3.13969 0 0 2.98094 0 6.64378C0 10.9022 5.97337 17.8197 6.22765 18.1113L7 19L7.77235 18.1113C8.02663 17.8187 14 10.9022 14 6.64378C14 2.97999 10.8603 0 7 0ZM7 1.89981C9.75608 1.89981 11.9978 4.02869 11.9978 6.64378C11.9978 9.21328 8.8801 13.6325 7 15.974C5.1199 13.6344 2.00223 9.21708 2.00223 6.64378C2.00223 4.02869 4.24392 1.89981 7 1.89981ZM7 4.26531C5.61746 4.26531 4.49721 5.32825 4.49721 6.64007C4.49721 7.9519 5.61746 9.01484 7 9.01484C8.38254 9.01484 9.50279 7.9519 9.50279 6.64007C9.50279 5.32825 8.38254 4.26531 7 4.26531Z" fill="#0AAF60"/>
</svg>
