<svg width="44" height="44" viewBox="0 0 44 44" fill="none" xmlns="http://www.w3.org/2000/svg">
<g clip-path="url(#clip0_1_235)">
<path d="M22.0003 -0.139893L21.6996 0.0097819C21.6996 0.0097819 13.7656 3.97222 3.17808 3.97222H2.50586V4.64444C2.50586 20.2419 7.27304 29.6709 12.0837 35.1688C16.8944 40.6668 21.7942 42.2561 21.7942 42.2561L22.0003 42.323L22.2064 42.2561C22.2064 42.2561 27.1062 40.6668 31.9169 35.1688C36.7276 29.6709 41.4947 20.2419 41.4947 4.64444V3.97222H40.8225C30.235 3.97222 22.301 0.0097819 22.301 0.0097819L22.0003 -0.139893ZM22.0003 1.34504C22.7729 1.7182 30.1212 5.12145 40.1254 5.28515C39.992 20.2043 35.4389 29.1034 30.9059 34.2839C26.4729 39.3503 22.3109 40.7738 22.0003 40.8775C21.6897 40.7738 17.5277 39.3503 13.0947 34.2839C8.56174 29.1034 4.00856 20.2043 3.87525 5.28515C13.8794 5.12145 21.2277 1.7182 22.0003 1.34504ZM20.7386 4.81643L20.5062 4.85845L20.4432 4.88208L20.0335 5.32454L20.1438 5.91667L20.6834 6.18451L20.9171 6.14118L20.9802 6.11755L21.3885 5.67509L21.2795 5.08296L20.7386 4.81643ZM23.48 4.86501L22.8826 4.93591L22.5819 5.45846L22.8196 6.0112L23.0244 6.12937L23.0874 6.15169L23.6861 6.08079L23.9868 5.55955L23.7491 5.0055L23.543 4.88733L23.48 4.86501ZM18.1784 5.7066L17.9433 5.73417L17.879 5.75255L17.4418 6.16744L17.5127 6.76614L18.0339 7.06811L18.2689 7.03923L18.3333 7.02085L18.7705 6.60596L18.6996 6.00726L18.1784 5.7066ZM26.0494 5.73417L25.4573 5.84052L25.1881 6.38014L25.4586 6.91844L25.67 7.02348L25.7343 7.04317L26.3277 6.93551L26.5969 6.39721L26.3264 5.8589L26.1137 5.75255L26.0494 5.73417ZM15.5709 6.45366L15.3332 6.46548L15.2689 6.48123L14.8054 6.86724L14.8382 7.46856L15.3398 7.80336L15.5761 7.79023L15.6418 7.77447L16.1039 7.38847L16.0711 6.78715L15.5709 6.45366ZM28.6805 6.46417L28.091 6.59021L27.8402 7.13901L28.1291 7.66681L28.3444 7.76528L28.41 7.78235L28.9982 7.65631L29.249 7.1075L28.9602 6.5797L28.7448 6.48123L28.6805 6.46417ZM12.9056 7.05105L12.6693 7.05499L12.6036 7.06811L12.1284 7.43836L12.1389 8.041L12.6286 8.39155L12.8662 8.38761L12.9319 8.37448L13.4072 8.00424L13.3953 7.4016L12.9056 7.05105ZM31.3156 7.05761L30.7379 7.22829L30.5291 7.79285L30.856 8.29965L31.0792 8.38105L31.1449 8.39287L31.7226 8.22218L31.9313 7.65762L31.6044 7.15214L31.3825 7.06943L31.3156 7.05761ZM34.0031 7.50532L33.4333 7.69964L33.2482 8.27339L33.5961 8.76443L33.822 8.83664L33.8889 8.84583L34.4587 8.65151L34.6439 8.07776L34.2946 7.58672L34.0701 7.51451L34.0031 7.50532ZM9.98171 7.51714L9.91475 7.52764L9.42633 7.87951L9.41452 8.48215L9.89111 8.85108L10.1274 8.85502L10.1944 8.84451L10.6828 8.49265L10.6933 7.89132L10.218 7.52108L9.98171 7.51714ZM7.35978 7.82305C7.34401 7.82294 7.32825 7.82337 7.31251 7.82437C7.27331 7.82665 7.26335 7.82793 7.27969 7.82699L6.64685 7.86507V8.52678C6.64488 8.66281 6.68423 8.79624 6.7597 8.90943C6.83516 9.02263 6.94319 9.11027 7.06951 9.16077C7.19583 9.21127 7.33451 9.22226 7.46721 9.19228C7.59991 9.1623 7.72039 9.09277 7.81274 8.99288C7.91322 8.90156 7.9837 8.78197 8.0149 8.64983C8.0461 8.51769 8.03655 8.3792 7.98753 8.25259C7.9385 8.12598 7.85229 8.01718 7.74024 7.9405C7.62819 7.86383 7.49555 7.82289 7.35978 7.82305ZM36.6211 7.82305C36.4848 7.82685 36.3529 7.872 36.2429 7.95252C36.1328 8.03304 36.0499 8.14511 36.005 8.27387C35.9602 8.40262 35.9555 8.54198 35.9917 8.67344C36.0278 8.80491 36.1031 8.92227 36.2076 9.00994C36.2084 9.01082 36.2093 9.0117 36.2102 9.01257C36.3051 9.10636 36.4257 9.1698 36.5567 9.19483C36.6878 9.21985 36.8233 9.20533 36.946 9.1531C37.0688 9.10087 37.1732 9.0133 37.2461 8.90154C37.3189 8.78977 37.3569 8.65886 37.3551 8.52547V7.86507L36.7222 7.82699C36.7386 7.82793 36.7273 7.82667 36.6881 7.82437C36.6658 7.82281 36.6435 7.82238 36.6211 7.82305ZM36.4557 10.6078L35.9831 10.982L35.9227 11.2117L35.9161 11.28L36.1406 11.838L36.7235 11.9929L37.1962 11.6187L37.2566 11.3903L37.2618 11.322L37.0373 10.7627L36.4557 10.6078ZM7.1799 10.6616L6.75845 11.0923L6.72694 11.326L6.72826 11.3535V11.364L6.72957 11.3745L6.73219 11.4152L7.04073 11.9325L7.63943 11.9956L8.04775 11.5531L8.0727 11.3181L8.07139 11.2971L8.07007 11.2761V11.2695L7.77729 10.743L7.1799 10.6616ZM22.0003 11.3667C19.4095 11.3667 17.2947 13.4814 17.2947 16.0722C17.2947 17.6908 18.1206 19.1229 19.3718 19.9703C16.9688 20.9965 15.2781 23.3832 15.2781 26.1556H16.6225C16.6225 23.1772 19.0219 20.7778 22.0003 20.7778C24.9787 20.7778 27.3781 23.1772 27.3781 26.1556H28.7225C28.7225 23.3832 27.0318 20.9965 24.6288 19.9703C25.88 19.1229 26.7059 17.6908 26.7059 16.0722C26.7059 13.4814 24.5911 11.3667 22.0003 11.3667ZM22.0003 12.7111C23.8646 12.7111 25.3614 14.208 25.3614 16.0722C25.3614 17.9365 23.8646 19.4333 22.0003 19.4333C20.1361 19.4333 18.6392 17.9365 18.6392 16.0722C18.6392 14.208 20.1361 12.7111 22.0003 12.7111ZM36.2141 13.3965L35.7178 13.7378L35.6417 13.9623L35.6312 14.0293L35.8189 14.6017L36.3887 14.796L36.885 14.4547L36.9612 14.2302L36.9717 14.1619L36.7853 13.5895L36.2141 13.3965ZM7.37422 13.4989L6.99347 13.9663L6.98296 14.2026L6.99215 14.2709L7.33089 14.7685L7.93222 14.7947L8.31428 14.3286L8.32478 14.0923L8.31559 14.024L7.97554 13.5251L7.37422 13.4989ZM35.7704 16.1576L35.2517 16.4661L35.1612 16.684L35.1467 16.751L35.2938 17.3353L35.8504 17.5663L36.3691 17.2591L36.4596 17.0398L36.4741 16.9729L36.3257 16.3886L35.7704 16.1576ZM8.3773 16.298L7.77466 16.3099L7.42411 16.7983L7.42805 17.0359L7.44118 17.1029L7.81143 17.5795L8.41406 17.5676L8.76462 17.0779L8.76068 16.8416L8.74755 16.7733L8.3773 16.298ZM35.1178 18.878L34.5808 19.151L34.4758 19.3624L34.4561 19.4294L34.5651 20.0215L35.1047 20.2894L35.643 20.0163L35.748 19.8036L35.7664 19.7379L35.6574 19.1458L35.1178 18.878ZM8.97731 19.0342L8.3773 19.0841L8.05694 19.5948L8.07664 19.8298L8.09371 19.8968L8.49284 20.3484L9.09416 20.2986L9.41321 19.7878L9.39351 19.5515L9.37644 19.4845L8.97731 19.0342ZM34.2723 21.5393L33.7117 21.7572L33.5856 21.9594L33.5607 22.0224L33.6106 22.6224L34.1226 22.9415L34.6832 22.7222L34.8093 22.5213L34.8342 22.4583L34.783 21.857L34.2723 21.5393ZM9.77164 21.706L9.1795 21.8124L8.91035 22.352L8.95237 22.5857L8.97731 22.65L9.41714 23.0597L10.0106 22.9533L10.2797 22.4137L10.2364 22.1813L10.2128 22.1157L9.77164 21.706ZM33.1747 24.1166L32.6049 24.3083L32.4696 24.5026L32.4408 24.5656L32.4644 25.1669L32.9594 25.5096L33.5305 25.3179L33.6644 25.1223L33.6933 25.0606L33.671 24.4579L33.1747 24.1166ZM10.8154 24.2964L10.2338 24.4514L10.0093 25.0094L10.0697 25.2391L10.0986 25.3008L10.5712 25.675L11.1542 25.5201L11.3787 24.9621L11.317 24.7323L11.2881 24.6706L10.8154 24.2964ZM31.9077 26.5967L31.3169 26.7188L31.1606 26.896L31.1239 26.9551L31.074 27.5551L31.5243 27.9543L32.1151 27.8322L32.2714 27.6549L32.3081 27.5972L32.358 26.9971L31.9077 26.5967ZM12.0417 26.7884L11.4824 27.0155L11.3301 27.5972L11.4194 27.8177L11.4561 27.8755L11.9721 28.1867L12.5301 27.9608L12.6824 27.3779L12.5931 27.1586L12.5564 27.0995L12.0417 26.7884ZM30.4044 28.9573L29.8083 29.0453L29.6416 29.2134L29.6022 29.2698L29.5168 29.8659L29.9449 30.2913L30.5409 30.2033L30.7077 30.0353L30.7471 29.9788L30.8311 29.3827L30.4044 28.9573ZM13.5647 29.1385L13.0225 29.3985L12.9056 29.9893L13.0067 30.2033L13.0474 30.2598L13.5805 30.5394L14.124 30.2795L14.2409 29.6887L14.1385 29.4746L14.0991 29.4182L13.5647 29.1385ZM28.7225 31.1828L28.1212 31.2064L27.9374 31.3548L27.8914 31.4073L27.7444 31.9902L28.1225 32.4589L28.7252 32.4353L28.909 32.2856L28.9536 32.2344L29.102 31.6502L28.7225 31.1828ZM15.2755 31.3285L14.766 31.6502L14.7175 32.2502L14.8435 32.4511L14.8908 32.5023L15.4527 32.7176L15.9621 32.3972L16.0107 31.7972L15.8847 31.5963L15.8374 31.5451L15.2755 31.3285ZM26.2463 33.2126L26.0481 33.3425L25.9982 33.3898L25.7921 33.9557L26.1229 34.4585L26.7242 34.4966L26.9225 34.3666L26.9724 34.3194L27.1785 33.7535L26.8477 33.2493L26.2463 33.2126ZM17.212 33.3281L16.7394 33.6997L16.7551 34.3023L16.9009 34.4887L16.9534 34.5347L17.535 34.6896L18.0077 34.3181L17.9932 33.7154L17.8462 33.529L17.795 33.483L17.212 33.3281ZM24.1798 35.0231L23.9697 35.1334L23.9159 35.1754L23.6559 35.719L23.9356 36.252L24.5303 36.3479L24.7404 36.2376L24.7942 36.1956L25.0542 35.652L24.7745 35.1189L24.1798 35.0231ZM19.3613 35.1019L18.9267 35.5181L18.9989 36.1155L19.1617 36.2875L19.2182 36.3282L19.8116 36.4279L20.2475 36.0117L20.1753 35.4144L20.0112 35.2424L19.9561 35.2017L19.3613 35.1019ZM21.9465 36.5382C21.7955 36.5414 21.65 36.5953 21.5334 36.6913C21.4168 36.7873 21.3359 36.9197 21.3037 37.0672C21.2716 37.2148 21.29 37.3689 21.3561 37.5047C21.4222 37.6405 21.5322 37.75 21.6681 37.8157C21.6661 37.8147 21.6749 37.8198 21.6957 37.8302L21.9964 37.9798L22.3259 37.8157C22.4638 37.7484 22.5746 37.6359 22.6397 37.4969C22.7048 37.3579 22.7204 37.2008 22.6839 37.0517C22.6474 36.9026 22.561 36.7705 22.439 36.6774C22.317 36.5842 22.1669 36.5356 22.0134 36.5395C22.0117 36.5395 22.0099 36.5395 22.0082 36.5395C21.9876 36.5382 21.9671 36.5377 21.9465 36.5382Z" fill="#0AAF60"/>
<path d="M23.4797 4.86498L22.8824 4.93588L22.5817 5.45843L22.8193 6.01118L23.0242 6.12934L23.0872 6.15166L23.6859 6.08076L23.9865 5.55953L23.7489 5.00547L23.5428 4.8873L23.4797 4.86498ZM26.0492 5.73415L25.457 5.8405L25.1879 6.38011L25.4583 6.91841L25.6697 7.02345L25.7341 7.04314L26.3275 6.93548L26.5967 6.39718L26.3262 5.85888L26.1135 5.75253L26.0492 5.73415ZM28.6803 6.46414L28.0908 6.59018L27.84 7.13899L28.1288 7.66679L28.3442 7.76526L28.4098 7.78232L28.998 7.65628L29.2488 7.10748L28.9599 6.57968L28.7446 6.48121L28.6803 6.46414ZM31.3153 7.05758L30.7376 7.22827L30.5289 7.79283L30.8558 8.29962L31.079 8.38102L31.1447 8.39284L31.7223 8.22216L31.9311 7.6576L31.6042 7.15212L31.3823 7.0694L31.3153 7.05758ZM34.0029 7.5053L33.4331 7.69961L33.248 8.27336L33.5959 8.7644L33.8217 8.83661L33.8887 8.8458L34.4585 8.65149L34.6436 8.07773L34.2944 7.5867L34.0699 7.51449L34.0029 7.5053ZM36.6209 7.82303C36.4846 7.82682 36.3527 7.87198 36.2426 7.95249C36.1326 8.03301 36.0497 8.14508 36.0048 8.27384C35.9599 8.4026 35.9553 8.54195 35.9914 8.67342C36.0276 8.80488 36.1029 8.92224 36.2073 9.00992L36.21 9.01254C36.3048 9.10633 36.4255 9.16978 36.5565 9.1948C36.6875 9.21983 36.8231 9.2053 36.9458 9.15308C37.0686 9.10085 37.173 9.01328 37.2458 8.90151C37.3187 8.78975 37.3566 8.65884 37.3548 8.52544V7.86504L36.722 7.82696C36.7383 7.8279 36.727 7.82664 36.6879 7.82434C36.6656 7.82279 36.6432 7.82235 36.6209 7.82303ZM36.4555 10.6078L35.9828 10.9819L35.9224 11.2117L35.9159 11.28L36.1404 11.838L36.7233 11.9929L37.196 11.6187L37.2564 11.3903L37.2616 11.322L37.0371 10.7627L36.4555 10.6078ZM36.2139 13.3964L35.7176 13.7378L35.6415 13.9623L35.631 14.0293L35.8187 14.6017L36.3885 14.796L36.8848 14.4547L36.961 14.2301L36.9715 14.1619L36.785 13.5894L36.2139 13.3964ZM35.7701 16.1575L35.2515 16.4661L35.1609 16.684L35.1465 16.751L35.2935 17.3352L35.8502 17.5663L36.3688 17.2591L36.4594 17.0398L36.4739 16.9729L36.3255 16.3886L35.7701 16.1575ZM35.1176 18.8779L34.5806 19.151L34.4756 19.3624L34.4559 19.4294L34.5649 20.0215L35.1045 20.2893L35.6428 20.0162L35.7478 19.8035L35.7662 19.7379L35.6572 19.1458L35.1176 18.8779ZM34.2721 21.5392L33.7114 21.7572L33.5854 21.9594L33.5605 22.0224L33.6103 22.6224L34.1224 22.9415L34.683 22.7222L34.8091 22.5213L34.834 22.4583L34.7828 21.857L34.2721 21.5392ZM33.1745 24.1165L32.6046 24.3082L32.4694 24.5025L32.4405 24.5656L32.4642 25.1669L32.9591 25.5096L33.5303 25.3179L33.6642 25.1222L33.6931 25.0605L33.6707 24.4579L33.1745 24.1165ZM31.9075 26.5967L31.3167 26.7188L31.1604 26.896L31.1236 26.9551L31.0738 27.5551L31.5241 27.9542L32.1149 27.8321L32.2712 27.6549L32.3079 27.5971L32.3578 26.9971L31.9075 26.5967ZM30.4042 28.9573L29.8081 29.0453L29.6413 29.2133L29.602 29.2698L29.5166 29.8659L29.9446 30.2913L30.5407 30.2033L30.7075 30.0352L30.7468 29.9788L30.8309 29.3827L30.4042 28.9573ZM28.7223 31.1827L28.121 31.2064L27.9372 31.3547L27.8912 31.4073L27.7442 31.9902L28.1223 32.4589L28.7249 32.4353L28.9087 32.2856L28.9534 32.2344L29.1017 31.6502L28.7223 31.1827ZM26.2461 33.2125L26.0478 33.3425L25.998 33.3898L25.7918 33.9557L26.1227 34.4585L26.724 34.4966L26.9223 34.3666L26.9722 34.3193L27.1783 33.7535L26.8474 33.2493L26.2461 33.2125ZM24.1795 35.0231L23.9695 35.1334L23.9156 35.1754L23.6557 35.7189L23.9353 36.252L24.5301 36.3478L24.7402 36.2375L24.794 36.1955L25.054 35.652L24.7743 35.1189L24.1795 35.0231ZM21.9462 36.5382C21.7953 36.5414 21.6497 36.5953 21.5331 36.6913C21.4165 36.7872 21.3356 36.9197 21.3035 37.0672C21.2713 37.2148 21.2898 37.3689 21.3559 37.5046C21.422 37.6404 21.5319 37.75 21.6679 37.8157C21.6659 37.8147 21.6746 37.8197 21.6955 37.8301L21.9961 37.9798L22.3257 37.8157C22.4636 37.7483 22.5743 37.6358 22.6394 37.4968C22.7046 37.3579 22.7202 37.2008 22.6837 37.0517C22.6472 36.9026 22.5608 36.7705 22.4388 36.6773C22.3168 36.5842 22.1666 36.5355 22.0132 36.5395H22.0079C21.9874 36.5381 21.9668 36.5377 21.9462 36.5382Z" fill="#212E55"/>
</g>
<defs>
<clipPath id="clip0_1_235">
<rect width="44" height="44" fill="white"/>
</clipPath>
</defs>
</svg>
