<svg width="14" height="14" viewBox="0 0 14 14" fill="none" xmlns="http://www.w3.org/2000/svg">
<path d="M13.2401 9.71289C12.7501 9.70122 12.1333 9.67244 11.7437 9.604C11.3221 9.52933 10.815 9.38467 10.458 9.27345C10.178 9.18633 9.87311 9.26333 9.66544 9.47022L7.94111 11.1844C6.74956 10.5568 5.79522 9.82567 4.98711 9.01289C4.17433 8.20478 3.44322 7.25044 2.81556 6.05889L4.52978 4.33378C4.73667 4.12611 4.81367 3.82122 4.72656 3.54122C4.61611 3.185 4.47067 2.67789 4.39678 2.25633C4.32756 1.86667 4.29956 1.24989 4.28711 0.759889C4.277 0.336 3.93167 0 3.50778 0H0.777778C0.437111 0 0 0.255111 0 0.777778C0 4.30811 1.43111 7.67978 3.86244 10.1376C6.32022 12.5689 9.69189 14 13.2222 14C13.7449 14 14 13.5629 14 13.2222V10.4922C14 10.0683 13.664 9.723 13.2401 9.71289Z" fill="#0AAF60"/>
</svg>
