<svg width="29" height="28" viewBox="0 0 29 28" fill="none" xmlns="http://www.w3.org/2000/svg">
<path d="M28.0957 14C28.0957 21.7315 21.8272 28 14.0957 28C6.3642 28 0.0957031 21.7315 0.0957031 14C0.0957031 6.2685 6.3642 0 14.0957 0C21.8272 0 28.0957 6.2685 28.0957 14Z" fill="url(#paint0_linear_5_2277)"/>
<path opacity="0.05" d="M4.37804 13.626C10.0865 11.0395 16.7911 8.23317 17.8236 7.82717C20.1 6.93187 21.0926 7.84677 20.9372 9.30626C20.7461 11.0948 19.8403 16.2993 19.2831 20.0282C18.9569 22.2101 17.7753 22.8786 16.4418 22.0323C15.4303 21.3904 11.9527 19.1133 11.0378 18.3349C10.4141 17.8043 9.97944 17.2093 10.4218 16.6031C10.5513 16.426 10.8824 16.069 11.0665 15.8912C11.9898 14.9966 11.8652 14.8041 10.7487 15.6028C10.6157 15.698 9.84434 16.2573 9.52724 16.4687C8.75024 16.9867 8.03554 17.0147 6.82384 16.6031C5.83264 16.2664 4.88064 16.0067 4.28004 15.747C3.45054 15.3879 3.13274 14.1902 4.37804 13.626Z" fill="black"/>
<path opacity="0.07" d="M4.88118 13.714C10.1816 11.3445 16.7 8.62921 17.6534 8.24491C19.9382 7.32232 20.7789 7.86971 20.5332 9.65261C20.305 11.3032 19.4951 16.4104 18.9274 19.8341C18.5928 21.8494 17.6156 22.2932 16.343 21.47C15.5457 20.9562 12.3369 18.8422 11.5585 18.2269C10.9565 17.7516 10.3328 17.2028 11.0615 16.4083C11.3051 16.143 12.6505 14.8445 13.6564 13.8785C14.2395 13.3178 14.0316 13.0413 13.3281 13.5229C12.038 14.407 9.92748 15.8063 9.55088 16.0604C8.83338 16.5434 8.15928 16.6596 6.98608 16.2907C6.06138 15.9995 5.16818 15.7174 4.70268 15.5361C3.66248 15.1329 3.64848 14.2649 4.88118 13.714Z" fill="black"/>
<path d="M5.38193 13.8015C10.2749 11.649 16.6064 9.0247 17.4807 8.6614C19.7732 7.7108 20.4767 7.8928 20.126 9.9984C19.874 11.5118 19.1474 16.5217 18.5678 19.6402C18.2241 21.4896 17.4527 21.7087 16.2403 20.9086C15.6572 20.5236 12.7137 18.5769 12.0746 18.1198C11.4915 17.7033 10.6872 17.2021 11.6959 16.2151C12.055 15.8637 14.4077 13.6167 16.241 11.8681C16.4811 11.6385 16.1794 11.2612 15.9022 11.4453C13.4312 13.084 10.0054 15.3583 9.56933 15.6544C8.91063 16.1017 8.27783 16.3068 7.14243 15.9806C6.28423 15.7342 5.44633 15.4402 5.12013 15.3282C3.86363 14.897 4.16183 14.3384 5.38193 13.8015Z" fill="white"/>
<defs>
<linearGradient id="paint0_linear_5_2277" x1="4.1963" y1="4.1006" x2="23.9951" y2="23.8994" gradientUnits="userSpaceOnUse">
<stop stop-color="#33BEF0"/>
<stop offset="1" stop-color="#0A85D9"/>
</linearGradient>
</defs>
</svg>
