<svg width="33" height="32" viewBox="0 0 33 32" fill="none" xmlns="http://www.w3.org/2000/svg">
<path d="M16.0957 31C24.3795 31 31.0957 24.2838 31.0957 16C31.0957 7.71622 24.3795 1 16.0957 1C7.81192 1 1.0957 7.71622 1.0957 16C1.0957 24.2838 7.81192 31 16.0957 31Z" fill="url(#paint0_linear_5_2277)" stroke="white" stroke-width="2"/>
<path opacity="0.05" d="M6.37804 15.626C12.0865 13.0395 18.7911 10.2332 19.8236 9.82717C22.1 8.93187 23.0926 9.84677 22.9372 11.3063C22.7461 13.0948 21.8403 18.2993 21.2831 22.0282C20.9569 24.2101 19.7753 24.8786 18.4418 24.0323C17.4303 23.3904 13.9527 21.1133 13.0378 20.3349C12.4141 19.8043 11.9794 19.2093 12.4218 18.6031C12.5513 18.426 12.8824 18.069 13.0665 17.8912C13.9898 16.9966 13.8652 16.8041 12.7487 17.6028C12.6157 17.698 11.8443 18.2573 11.5272 18.4687C10.7502 18.9867 10.0355 19.0147 8.82384 18.6031C7.83264 18.2664 6.88064 18.0067 6.28004 17.747C5.45054 17.3879 5.13274 16.1902 6.37804 15.626Z" fill="black"/>
<path opacity="0.07" d="M6.88118 15.714C12.1816 13.3445 18.7 10.6292 19.6534 10.2449C21.9382 9.32232 22.7789 9.86971 22.5332 11.6526C22.305 13.3032 21.4951 18.4104 20.9274 21.8341C20.5928 23.8494 19.6156 24.2932 18.343 23.47C17.5457 22.9562 14.3369 20.8422 13.5585 20.2269C12.9565 19.7516 12.3328 19.2028 13.0615 18.4083C13.3051 18.143 14.6505 16.8445 15.6564 15.8785C16.2395 15.3178 16.0316 15.0413 15.3281 15.5229C14.038 16.407 11.9275 17.8063 11.5509 18.0604C10.8334 18.5434 10.1593 18.6596 8.98608 18.2907C8.06138 17.9995 7.16818 17.7174 6.70268 17.5361C5.66248 17.1329 5.64848 16.2649 6.88118 15.714Z" fill="black"/>
<path d="M7.38193 15.8015C12.2749 13.649 18.6064 11.0247 19.4807 10.6614C21.7732 9.7108 22.4767 9.8928 22.126 11.9984C21.874 13.5118 21.1474 18.5217 20.5678 21.6402C20.2241 23.4896 19.4527 23.7087 18.2403 22.9086C17.6572 22.5236 14.7137 20.5769 14.0746 20.1198C13.4915 19.7033 12.6872 19.2021 13.6959 18.2151C14.055 17.8637 16.4077 15.6167 18.241 13.8681C18.4811 13.6385 18.1794 13.2612 17.9022 13.4453C15.4312 15.084 12.0054 17.3583 11.5693 17.6544C10.9106 18.1017 10.2778 18.3068 9.14243 17.9806C8.28423 17.7342 7.44633 17.4402 7.12013 17.3282C5.86363 16.897 6.16183 16.3384 7.38193 15.8015Z" fill="white"/>
<defs>
<linearGradient id="paint0_linear_5_2277" x1="6.1963" y1="6.1006" x2="25.9951" y2="25.8994" gradientUnits="userSpaceOnUse">
<stop stop-color="#33BEF0"/>
<stop offset="1" stop-color="#0A85D9"/>
</linearGradient>
</defs>
</svg>
