<svg width="29" height="29" viewBox="0 0 29 29" fill="none" xmlns="http://www.w3.org/2000/svg">
<path d="M23.9852 4.11788C21.3325 1.46342 17.8064 0.000890161 14.0534 0C6.30521 0 0.00356156 6.29878 7.99588e-07 14.0414C-0.000889389 16.695 0.741528 19.2782 2.14803 21.5152L2.48274 22.0466L1.06289 27.2282L6.37998 25.8342L6.89362 26.1387C9.04966 27.4187 11.5226 28.0953 14.0436 28.0961H14.049C21.7918 28.0961 28.0935 21.7965 28.0961 14.053C28.097 10.3009 26.638 6.77234 23.9852 4.11788Z" fill="url(#paint0_linear_5_2269)"/>
<path opacity="0.05" d="M17.7948 21.61C17.0332 21.61 15.9929 21.4156 13.901 20.5912C11.5587 19.6665 9.25783 17.6595 7.4223 14.9392L7.36336 14.8527C6.87195 14.1967 5.73145 12.4745 5.73145 10.6428C5.73145 8.66792 6.71733 7.61697 7.13832 7.16766L7.20339 7.098C7.78435 6.46192 8.46866 6.3938 8.7358 6.3938C9.01824 6.39686 9.25783 6.3938 9.46526 6.40298C9.96586 6.42289 10.5361 6.56755 10.9472 7.48149C11.1385 7.9086 11.4646 8.71002 11.7195 9.33845C11.8825 9.74183 12.0149 10.0694 12.0555 10.1567C12.2805 10.6052 12.2913 11.05 12.0831 11.4687L12.0333 11.5705C11.9353 11.771 11.8335 11.9784 11.6169 12.231L11.437 12.4469C11.313 12.5977 11.1883 12.7477 11.0773 12.8641C11.375 13.3547 12.0004 14.2847 12.8615 15.0532C13.9285 16.0031 14.8425 16.4004 15.3331 16.614C15.4303 16.6561 15.5115 16.692 15.5758 16.7226C15.8858 16.3629 16.3963 15.7498 16.5724 15.4872C17.1618 14.6024 18.0091 14.9093 18.287 15.0111C18.7225 15.1688 20.8305 16.2175 20.8512 16.2274L21.0464 16.3231C21.3671 16.4785 21.6687 16.6247 21.8593 16.9416C22.1616 17.4475 21.994 18.5283 21.7115 19.3183C21.3028 20.4687 19.5469 21.4653 18.6084 21.5495L18.4355 21.5679C18.2326 21.5916 18.0267 21.61 17.7948 21.61ZM8.85674 7.92468C8.74957 7.92468 8.56204 7.88028 8.33165 8.13135L8.25434 8.21478C7.90759 8.58449 7.26156 9.27338 7.26156 10.6428C7.26156 12.0535 8.27653 13.5185 8.5873 13.9341C8.60797 13.9617 8.64165 14.0115 8.69064 14.0826C10.3555 16.5497 12.4053 18.3553 14.4628 19.1667C17.0531 20.1886 17.7182 20.1112 18.2563 20.0477L18.4691 20.0248C18.9353 19.9827 20.0934 19.2968 20.2687 18.8046C20.4287 18.3569 20.4799 17.9726 20.4884 17.7529C20.4547 17.7369 20.4179 17.72 20.3789 17.7016L20.1623 17.5952C19.6747 17.3503 18.0351 16.5497 17.7657 16.4509C17.4274 16.9163 16.7997 17.6488 16.6336 17.8394C16.3221 18.1969 15.771 18.5352 14.9274 18.1104C14.8769 18.0851 14.808 18.056 14.7223 18.0185C14.1934 17.7881 13.0919 17.3097 11.842 16.1968C10.7175 15.1933 9.94825 13.9739 9.66963 13.4955C9.32901 12.9131 9.42316 12.3512 9.94978 11.8269C10.0416 11.735 10.1465 11.6041 10.2537 11.4748L10.4542 11.2344C10.5445 11.1296 10.5774 11.0615 10.6586 10.8969L10.6854 10.8425C10.615 10.6864 10.4726 10.3381 10.3011 9.91406C10.0539 9.304 9.73776 8.52478 9.55176 8.10992C9.502 7.99969 9.4645 7.94535 9.44613 7.92238C9.44995 7.93386 9.42393 7.93463 9.40173 7.9331C9.2318 7.92468 9.0458 7.92468 8.85674 7.92468Z" fill="black"/>
<path opacity="0.07" d="M17.7928 21.2313C17.1452 21.2313 16.1433 21.0629 14.0429 20.2347C11.7718 19.3391 9.53369 17.3819 7.74103 14.7251L7.67444 14.6271C7.20292 13.9979 6.11523 12.3599 6.11523 10.6422C6.11523 8.81893 7.0284 7.84529 7.41878 7.42889L7.4869 7.35541C7.9653 6.83261 8.52101 6.77673 8.73763 6.77673C9.0262 6.77903 9.24818 6.77673 9.45026 6.78592C9.82685 6.80123 10.2593 6.88083 10.5999 7.63862C10.7905 8.06267 11.1136 8.85873 11.3662 9.48256C11.5384 9.90738 11.6762 10.2495 11.7121 10.3223C11.7749 10.4485 11.9708 10.8382 11.742 11.2982L11.6907 11.4023C11.595 11.5975 11.5124 11.7666 11.3271 11.9825L11.1419 12.2037C11.0095 12.3644 10.877 12.5244 10.7622 12.6392C10.5969 12.8038 10.5969 12.8038 10.6627 12.9163C10.9138 13.3473 11.6057 14.4457 12.6077 15.3389C13.7199 16.3302 14.6713 16.7428 15.1819 16.9647C15.2921 17.0122 15.3801 17.0512 15.4452 17.0841C15.6695 17.1959 15.6924 17.1729 15.772 17.0826C15.9925 16.8316 16.6661 16.0386 16.8919 15.6995C17.3159 15.0642 17.8632 15.2632 18.1579 15.3696C18.5452 15.5104 20.4841 16.4695 20.6808 16.5682L20.8813 16.6662C21.1722 16.8071 21.4018 16.918 21.5335 17.1362C21.7279 17.4623 21.6475 18.3632 21.3536 19.1883C20.9801 20.2378 19.3283 21.0996 18.5766 21.167L18.3937 21.1869C18.2153 21.2083 18.0278 21.2313 17.7928 21.2313ZM8.84632 7.54217C8.82642 7.54217 8.80652 7.54217 8.78662 7.54217C8.64654 7.54217 8.33118 7.5659 8.05027 7.87284L7.97602 7.95245C7.62009 8.33211 6.87991 9.12204 6.87991 10.6422C6.87991 12.1295 7.86044 13.5999 8.2822 14.1632C8.30133 14.1885 8.33118 14.2321 8.37481 14.2964C10.0825 16.827 12.1951 18.6824 14.3238 19.5228C17.0067 20.5807 17.7262 20.4957 18.3018 20.4284L18.5062 20.4062C19.0366 20.3587 20.3823 19.6308 20.631 18.9327C20.8859 18.2193 20.8966 17.6238 20.8576 17.496C20.863 17.5005 20.68 17.4209 20.5476 17.3566L20.3363 17.2525C19.8595 17.013 18.1885 16.1955 17.8961 16.0891C17.6206 15.9896 17.6198 15.9873 17.5287 16.1243C17.2616 16.5231 16.5183 17.3926 16.3484 17.5863C15.857 18.1489 15.289 17.8611 15.1015 17.7669C15.0464 17.7394 14.9706 17.7072 14.8772 17.6666C14.3659 17.4439 13.3027 16.9816 12.0987 15.9092C11.0148 14.9432 10.2716 13.7637 10.0021 13.3013C9.63779 12.6783 10.0473 12.2703 10.2218 12.0965C10.3213 11.997 10.4361 11.857 10.5517 11.7161L10.7469 11.4819C10.8686 11.3395 10.9199 11.2354 11.0041 11.0632L11.0577 10.9537C11.0952 10.8787 11.1021 10.8091 11.0271 10.6606C10.9873 10.581 10.8395 10.2182 10.6574 9.76731C10.4078 9.15266 10.0902 8.36732 9.90187 7.95015C9.72658 7.56054 9.62401 7.55595 9.41811 7.5483C9.24129 7.54217 9.04534 7.54217 8.84632 7.54217Z" fill="black"/>
<path fill-rule="evenodd" clip-rule="evenodd" d="M10.25 7.79576C9.97829 7.19107 9.69202 7.17882 9.43253 7.1681C9.2205 7.15892 8.97863 7.15968 8.73675 7.15968C8.49487 7.15968 8.10143 7.25077 7.76847 7.61435C7.4355 7.97794 6.49707 8.8559 6.49707 10.6424C6.49707 12.429 7.79832 14.1558 7.97973 14.3977C8.16114 14.6396 10.4919 18.4231 14.1829 19.879C17.25 21.0884 17.8746 20.848 18.5405 20.7876C19.2064 20.7271 20.6891 19.9096 20.9914 19.0615C21.2938 18.2134 21.2938 17.487 21.2035 17.3354C21.1124 17.1839 20.8705 17.0936 20.5077 16.9114C20.1449 16.7292 18.3591 15.8513 18.0261 15.7303C17.6932 15.6094 17.4513 15.5489 17.2086 15.9125C16.9668 16.2753 16.271 17.0936 16.0589 17.3354C15.8469 17.5781 15.6349 17.6087 15.2721 17.4265C14.9093 17.2444 13.7397 16.8616 12.3519 15.6247C11.2726 14.6625 10.544 13.4738 10.3319 13.1102C10.1199 12.7474 10.309 12.5507 10.4911 12.3693C10.6542 12.2062 10.854 11.9452 11.0361 11.7332C11.2175 11.5212 11.278 11.3696 11.3989 11.1277C11.5199 10.8851 11.4594 10.6731 11.3683 10.4916C11.2788 10.3095 10.573 8.51375 10.25 7.79576Z" fill="white"/>
<defs>
<linearGradient id="paint0_linear_5_2269" x1="6.64259" y1="2.24321" x2="18.6364" y2="27.6478" gradientUnits="userSpaceOnUse">
<stop stop-color="#63D46D"/>
<stop offset="1" stop-color="#21B238"/>
</linearGradient>
</defs>
</svg>
