<svg width="32" height="32" viewBox="0 0 32 32" fill="none" xmlns="http://www.w3.org/2000/svg">
<path d="M27.3374 4.65269C24.3274 1.65385 20.3239 0.00158795 16.0637 0C7.28012 0 0.131093 7.11559 0.127106 15.8628C0.126309 18.5361 0.804056 21.1705 2.08938 23.5024L0.0282353 30.9967C-0.0467155 31.2707 0.0298299 31.5628 0.230762 31.7645C0.382258 31.917 0.587177 32.0003 0.797677 32.0003C0.865452 32.0003 0.933226 31.9916 1.0002 31.9741L8.72412 29.9574C10.979 31.123 13.5066 31.7383 16.0573 31.7391C24.8473 31.7391 31.9963 24.6227 32.0003 15.8755C32.0019 11.6365 30.3458 7.65073 27.3374 4.65269Z" fill="white"/>
<path d="M25.9352 6.07003C23.2824 3.41557 19.7564 1.95304 16.0034 1.95215C8.25516 1.95215 1.95351 8.25092 1.94995 15.9935C1.94906 18.6471 2.69148 21.2304 4.09798 23.4673L4.43269 23.9988L3.01284 29.1804L8.32994 27.7864L8.84357 28.0908C10.9996 29.3709 13.4726 30.0474 15.9936 30.0483H15.9989C23.7418 30.0483 30.0434 23.7486 30.0461 16.0051C30.047 12.2531 28.588 8.72449 25.9352 6.07003Z" fill="url(#paint0_linear_5_2040)"/>
<path opacity="0.05" d="M19.745 23.5619C18.9834 23.5619 17.9431 23.3675 15.8512 22.5431C13.5089 21.6184 11.208 19.6114 9.3725 16.8911L9.31356 16.8046C8.82215 16.1486 7.68164 14.4264 7.68164 12.5947C7.68164 10.6198 8.66753 9.56888 9.08852 9.11956L9.15358 9.04991C9.73455 8.41383 10.4189 8.3457 10.686 8.3457C10.9684 8.34876 11.208 8.3457 11.4155 8.35489C11.9161 8.37479 12.4863 8.51946 12.8973 9.43339C13.0887 9.86051 13.4148 10.6619 13.6697 11.2904C13.8327 11.6937 13.9651 12.0213 14.0057 12.1086C14.2307 12.5572 14.2415 13.0019 14.0333 13.4206L13.9835 13.5224C13.8855 13.7229 13.7837 13.9304 13.5671 14.1829L13.3872 14.3988C13.2632 14.5496 13.1385 14.6996 13.0275 14.816C13.3252 15.3066 13.9506 16.2366 14.8117 17.0051C15.8787 17.955 16.7927 18.3523 17.2833 18.5659C17.3805 18.608 17.4617 18.6439 17.526 18.6745C17.836 18.3148 18.3465 17.7017 18.5226 17.4391C19.112 16.5543 19.9593 16.8612 20.2372 16.963C20.6727 17.1207 22.7807 18.1694 22.8014 18.1793L22.9966 18.275C23.3173 18.4304 23.6189 18.5766 23.8095 18.8935C24.1118 19.3994 23.9442 20.4802 23.6617 21.2702C23.253 22.4206 21.4971 23.4172 20.5586 23.5014L20.3856 23.5198C20.1828 23.5435 19.9769 23.5619 19.745 23.5619ZM10.8069 9.87658C10.6998 9.87658 10.5122 9.83219 10.2818 10.0833L10.2045 10.1667C9.85779 10.5364 9.21175 11.2253 9.21175 12.5947C9.21175 14.0054 10.2267 15.4704 10.5375 15.8861C10.5582 15.9136 10.5918 15.9634 10.6408 16.0345C12.3057 18.5016 14.3555 20.3072 16.413 21.1186C19.0033 22.1405 19.6684 22.0632 20.2065 21.9996L20.4193 21.9767C20.8855 21.9346 22.0436 21.2487 22.2189 20.7565C22.3789 20.3088 22.4301 19.9245 22.4386 19.7048C22.4049 19.6888 22.3681 19.6719 22.3291 19.6535L22.1125 19.5472C21.6249 19.3022 19.9853 18.5016 19.7159 18.4028C19.3776 18.8682 18.7499 19.6007 18.5838 19.7913C18.2723 20.1488 17.7212 20.4871 16.8776 20.0623C16.8271 20.037 16.7582 20.0079 16.6725 19.9704C16.1436 19.74 15.0421 19.2616 13.7921 18.1487C12.6677 17.1452 11.8984 15.9259 11.6198 15.4475C11.2792 14.865 11.3734 14.3031 11.9 13.7788C11.9918 13.6869 12.0967 13.5561 12.2039 13.4267L12.4044 13.1863C12.4947 13.0815 12.5276 13.0134 12.6088 12.8488L12.6356 12.7944C12.5651 12.6383 12.4228 12.29 12.2513 11.866C12.0041 11.2559 11.688 10.4767 11.502 10.0618C11.4522 9.9516 11.4147 9.89725 11.3963 9.87429C11.4001 9.88577 11.3741 9.88653 11.3519 9.885C11.182 9.87658 10.996 9.87658 10.8069 9.87658Z" fill="black"/>
<path opacity="0.07" d="M19.7425 23.1831C19.0949 23.1831 18.093 23.0147 15.9926 22.1865C13.7215 21.2909 11.4834 19.3337 9.69074 16.6768L9.62414 16.5789C9.15263 15.9497 8.06494 14.3116 8.06494 12.594C8.06494 10.7707 8.97811 9.79707 9.36849 9.38067L9.43661 9.30719C9.91501 8.78439 10.4707 8.72852 10.6873 8.72852C10.9759 8.73081 11.1979 8.72852 11.4 8.7377C11.7766 8.75301 12.209 8.83262 12.5497 9.5904C12.7402 10.0145 13.0633 10.8105 13.3159 11.4343C13.4881 11.8592 13.6259 12.2013 13.6618 12.274C13.7246 12.4003 13.9206 12.7899 13.6917 13.25L13.6404 13.3541C13.5447 13.5493 13.4621 13.7184 13.2768 13.9343L13.0916 14.1555C12.9592 14.3162 12.8267 14.4762 12.7119 14.591C12.5466 14.7556 12.5466 14.7556 12.6124 14.8681C12.8635 15.2991 13.5554 16.3975 14.5574 17.2907C15.6696 18.282 16.621 18.6945 17.1316 18.9165C17.2418 18.964 17.3298 19.003 17.3949 19.0359C17.6192 19.1477 17.6421 19.1247 17.7217 19.0344C17.9422 18.7833 18.6158 17.9903 18.8416 17.6512C19.2656 17.0159 19.8129 17.2149 20.1076 17.3213C20.4949 17.4622 22.4338 18.4213 22.6305 18.52L22.831 18.618C23.1219 18.7588 23.3515 18.8698 23.4832 19.088C23.6776 19.4141 23.5972 20.315 23.3033 21.1401C22.9298 22.1895 21.278 23.0514 20.5263 23.1188L20.3434 23.1387C20.165 23.1601 19.9775 23.1831 19.7425 23.1831ZM10.796 9.49396C10.7761 9.49396 10.7562 9.49396 10.7363 9.49396C10.5963 9.49396 10.2809 9.51768 9.99997 9.82463L9.92572 9.90423C9.5698 10.2839 8.82962 11.0738 8.82962 12.594C8.82962 14.0812 9.81014 15.5516 10.2319 16.115C10.251 16.1403 10.2809 16.1839 10.3245 16.2482C12.0322 18.7787 14.1448 20.6342 16.2735 21.4746C18.9564 22.5325 19.6759 22.4475 20.2515 22.3801L20.4559 22.3579C20.9863 22.3105 22.332 21.5825 22.5807 20.8845C22.8356 20.1711 22.8464 19.5756 22.8073 19.4477C22.8127 19.4523 22.6297 19.3727 22.4973 19.3084L22.2861 19.2043C21.8092 18.9647 20.1382 18.1473 19.8458 18.0409C19.5703 17.9414 19.5695 17.9391 19.4784 18.0761C19.2113 18.4749 18.468 19.3444 18.2981 19.5381C17.8067 20.1007 17.2387 19.8129 17.0512 19.7187C16.9961 19.6911 16.9203 19.659 16.8269 19.6184C16.3156 19.3957 15.2524 18.9334 14.0484 17.861C12.9645 16.895 12.2213 15.7155 11.9518 15.2531C11.5875 14.6301 11.997 14.2221 12.1715 14.0483C12.271 13.9488 12.3858 13.8087 12.5014 13.6679L12.6966 13.4337C12.8183 13.2913 12.8696 13.1872 12.9538 13.015L13.0074 12.9055C13.0449 12.8305 13.0518 12.7609 12.9768 12.6124C12.937 12.5328 12.7892 12.1699 12.6071 11.7191C12.3575 11.1044 12.0399 10.3191 11.8516 9.90194C11.6763 9.51233 11.5737 9.50773 11.3678 9.50008C11.191 9.49396 10.995 9.49396 10.796 9.49396Z" fill="black"/>
<path fill-rule="evenodd" clip-rule="evenodd" d="M12.2005 9.74791C11.9287 9.14322 11.6425 9.13097 11.383 9.12025C11.1709 9.11107 10.9291 9.11183 10.6872 9.11183C10.4453 9.11183 10.0519 9.20292 9.71891 9.5665C9.38594 9.93009 8.44751 10.808 8.44751 12.5946C8.44751 14.3811 9.74876 16.108 9.93017 16.3498C10.1116 16.5917 12.4423 20.3753 16.1333 21.8311C19.2004 23.0405 19.825 22.8002 20.4909 22.7397C21.1569 22.6793 22.6395 21.8618 22.9419 21.0137C23.2442 20.1655 23.2442 19.4391 23.1539 19.2876C23.0628 19.136 22.8209 19.0457 22.4581 18.8635C22.0953 18.6814 20.3095 17.8034 19.9766 17.6825C19.6436 17.5615 19.4017 17.5011 19.1591 17.8646C18.9172 18.2275 18.2214 19.0457 18.0094 19.2876C17.7974 19.5302 17.5853 19.5609 17.2225 19.3787C16.8597 19.1965 15.6901 18.8138 14.3024 17.5768C13.2231 16.6147 12.4944 15.4259 12.2824 15.0624C12.0703 14.6995 12.2594 14.5028 12.4416 14.3214C12.6046 14.1584 12.8044 13.8974 12.9866 13.6853C13.168 13.4733 13.2284 13.3218 13.3494 13.0799C13.4703 12.8372 13.4099 12.6252 13.3188 12.4438C13.2292 12.2616 12.5235 10.4659 12.2005 9.74791Z" fill="white"/>
<defs>
<linearGradient id="paint0_linear_5_2040" x1="8.59254" y1="4.19535" x2="20.5863" y2="29.5999" gradientUnits="userSpaceOnUse">
<stop stop-color="#63D46D"/>
<stop offset="1" stop-color="#21B238"/>
</linearGradient>
</defs>
</svg>
